<svg xmlns="http://www.w3.org/2000/svg" width="14" height="14" viewBox="0 0 14 14" fill="none">
<path fill-rule="evenodd" clip-rule="evenodd" d="M5.83335 1.16663C5.18902 1.16663 4.66669 1.68896 4.66669 2.33329V3.49996H2.91669C1.95019 3.49996 1.16669 4.28346 1.16669 5.24996V10.5C1.16669 11.4665 1.95019 12.25 2.91669 12.25H11.0834C12.0499 12.25 12.8334 11.4665 12.8334 10.5V5.24996C12.8334 4.28346 12.0499 3.49996 11.0834 3.49996H9.33335V2.33329C9.33335 1.68896 8.81102 1.16663 8.16669 1.16663H5.83335ZM8.16669 3.49996V2.33329H5.83335V3.49996H8.16669ZM4.66669 4.66663V11.0833H9.33335V4.66663H4.66669ZM10.5 4.66663V11.0833H11.0834C11.4055 11.0833 11.6667 10.8221 11.6667 10.5V5.24996C11.6667 4.92779 11.4055 4.66663 11.0834 4.66663H10.5ZM2.91669 4.66663H3.50002V11.0833H2.91669C2.59452 11.0833 2.33335 10.8221 2.33335 10.5V5.24996C2.33335 4.92779 2.59452 4.66663 2.91669 4.66663Z" fill="#9BA2C1"/>
</svg>