<svg xmlns="http://www.w3.org/2000/svg" width="22" height="22" viewBox="0 0 22 22" fill="none">
<path fill-rule="evenodd" clip-rule="evenodd" d="M11.1565 4.58333H3.66667C3.16041 4.58333 2.75 4.99374 2.75 5.5C2.75 6.00626 3.16041 6.41667 3.66667 6.41667H11.1565C11.534 7.48476 12.5526 8.25 13.75 8.25C14.9474 8.25 15.966 7.48476 16.3435 6.41667H18.3333C18.8396 6.41667 19.25 6.00626 19.25 5.5C19.25 4.99374 18.8396 4.58333 18.3333 4.58333H16.3435C15.966 3.51524 14.9474 2.75 13.75 2.75C12.5526 2.75 11.534 3.51524 11.1565 4.58333ZM12.8333 5.5C12.8333 4.99374 13.2437 4.58333 13.75 4.58333C14.2563 4.58333 14.6667 4.99374 14.6667 5.5C14.6667 6.00626 14.2563 6.41667 13.75 6.41667C13.2437 6.41667 12.8333 6.00626 12.8333 5.5Z" fill="white"/>
<path fill-rule="evenodd" clip-rule="evenodd" d="M7.33333 8.25C8.5307 8.25 9.54934 9.01524 9.92685 10.0833H18.3333C18.8396 10.0833 19.25 10.4937 19.25 11C19.25 11.5063 18.8396 11.9167 18.3333 11.9167H9.92685C9.54934 12.9848 8.5307 13.75 7.33333 13.75C6.13597 13.75 5.11733 12.9848 4.73981 11.9167H3.66667C3.16041 11.9167 2.75 11.5063 2.75 11C2.75 10.4937 3.16041 10.0833 3.66667 10.0833H4.73981C5.11733 9.01524 6.13597 8.25 7.33333 8.25ZM7.33333 10.0833C7.83959 10.0833 8.25 10.4937 8.25 11C8.25 11.5063 7.83959 11.9167 7.33333 11.9167C6.82707 11.9167 6.41667 11.5063 6.41667 11C6.41667 10.4937 6.82707 10.0833 7.33333 10.0833Z" fill="white"/>
<path fill-rule="evenodd" clip-rule="evenodd" d="M3.66667 15.5833C3.16041 15.5833 2.75 15.9937 2.75 16.5C2.75 17.0063 3.16041 17.4167 3.66667 17.4167H12.9898C13.3673 18.4848 14.386 19.25 15.5833 19.25C16.7807 19.25 17.7993 18.4848 18.1769 17.4167H18.3333C18.8396 17.4167 19.25 17.0063 19.25 16.5C19.25 15.9937 18.8396 15.5833 18.3333 15.5833H18.1769C17.7993 14.5152 16.7807 13.75 15.5833 13.75C14.386 13.75 13.3673 14.5152 12.9898 15.5833H3.66667ZM16.5 16.5C16.5 15.9937 16.0896 15.5833 15.5833 15.5833C15.0771 15.5833 14.6667 15.9937 14.6667 16.5C14.6667 17.0063 15.0771 17.4167 15.5833 17.4167C16.0896 17.4167 16.5 17.0063 16.5 16.5Z" fill="white"/>
</svg>