<svg xmlns="http://www.w3.org/2000/svg" width="11" height="12" viewBox="0 0 11 12" fill="none">
<path fill-rule="evenodd" clip-rule="evenodd" d="M9 5C9 7.20914 7.20914 9 5 9C2.79086 9 1 7.20914 1 5C1 2.79086 2.79086 1 5 1C7.20914 1 9 2.79086 9 5ZM8.70549 10.4126C8.04313 9.75024 7.01862 9.67141 6.10486 9.87752C5.74943 9.95769 5.37966 10 5 10C2.23858 10 0 7.76142 0 5C0 2.23858 2.23858 0 5 0C7.76142 0 10 2.23858 10 5C10 5.81652 9.80428 6.58733 9.45719 7.26807C9.01595 8.13345 8.95836 9.25125 9.64522 9.93811L10.5 10.7929C10.6953 10.9882 10.6953 11.3047 10.5 11.5C10.3047 11.6953 9.98815 11.6953 9.79289 11.5L8.70549 10.4126Z" fill="#ACB1C6"/>
</svg>