<svg xmlns="http://www.w3.org/2000/svg" width="18" height="18" viewBox="0 0 18 18" fill="none">
<path fill-rule="evenodd" clip-rule="evenodd" d="M15.6118 8.62131C14.6948 8.62131 13.9629 7.89203 13.6046 7.04797C13.1521 5.98199 12.3403 5.10542 11.3211 4.57028C10.36 4.06559 9.5 3.19761 9.5 2.112V0.5C9.5 0.223858 9.27614 0 9 0C8.72386 0 8.5 0.223858 8.5 0.5V2.112C8.5 3.19761 7.64002 4.06559 6.67885 4.57028C5.7497 5.05815 4.99288 5.82979 4.52359 6.77003C4.03698 7.74494 3.1717 8.62131 2.08211 8.62131H0.5C0.223858 8.62131 0 8.84516 0 9.12131C0 9.39745 0.223857 9.62131 0.5 9.62131L2.14376 9.62131C3.22576 9.62131 4.09664 10.4652 4.61947 11.4125C5.15053 12.3747 5.9894 13.1433 7.00331 13.5854C7.81117 13.9377 8.5 14.6468 8.5 15.5281V16.7426C8.5 17.0188 8.72385 17.2426 9 17.2426C9.27614 17.2426 9.5 17.0188 9.5 16.7426V15.5281C9.5 14.6468 10.1888 13.9377 10.9967 13.5854C12.1022 13.1034 12.9996 12.2332 13.5168 11.1472C13.9087 10.3241 14.6463 9.62131 15.5578 9.62131L16.8639 9.62131C17.1401 9.62131 17.3639 9.39745 17.3639 9.12131C17.3639 8.84517 17.1401 8.62131 16.8639 8.62131H15.6118ZM9 13C11.2091 13 13 11.2091 13 9C13 6.79086 11.2091 5 9 5C6.79086 5 5 6.79086 5 9C5 11.2091 6.79086 13 9 13Z" fill="#ACB1C6"/>
</svg>