<svg xmlns="http://www.w3.org/2000/svg" width="144" height="51" viewBox="0 0 144 51" fill="none">
  <g clip-path="url(#clip0_249_80)">
    <path d="M15.0643 32.3497C15.1327 32.2141 15.1327 32.0784 15.2012 31.9428C15.2012 31.8072 15.2697 31.6715 15.3382 31.5359C15.5436 30.8577 15.749 30.2473 15.886 29.637C16.0229 29.0266 16.2283 28.4162 16.4337 27.8058C16.5022 27.4667 16.6392 27.1955 16.7076 26.8564C16.7761 26.5173 16.9131 26.1782 16.9815 25.8391C17.05 25.7034 17.05 25.5 17.05 25.2965C17.05 25.0931 17.1185 24.9574 17.1185 24.754C17.1185 24.6183 17.1869 24.4149 17.2554 24.2792L17.4608 23.8045C17.5978 23.6689 17.6663 23.4654 17.7347 23.3298C17.8032 22.9907 17.9402 22.5838 18.0086 22.1769C18.0771 21.7699 18.2141 21.4308 18.351 21.0239C18.5564 20.3457 18.7618 19.6675 18.9673 18.9894C19.1727 18.3112 19.3781 17.633 19.652 16.9548C19.7889 16.6157 19.9259 16.2766 20.0628 16.0053L20.5422 15.0558C20.6791 14.7846 20.8845 14.5133 21.0215 14.3098C21.1584 14.0386 21.3638 13.7673 21.5008 13.496C21.7062 13.2247 21.9801 12.9534 22.254 12.8178C22.3225 12.75 22.4594 12.75 22.5279 12.75C22.5964 12.75 22.6648 12.75 22.7333 12.75C22.8018 12.75 22.9387 12.75 23.0072 12.75C23.0072 12.9534 23.0757 13.0213 23.2126 13.0891V13.1569C23.1442 13.2247 23.1442 13.3604 23.1442 13.496C23.1442 13.6316 23.1442 13.7673 23.0757 13.8351V14.0386C23.1442 14.1064 23.2126 14.242 23.1442 14.4455C23.0757 14.5133 23.0757 14.5811 23.0757 14.6489C23.0072 14.7167 23.0072 14.7846 23.0757 14.8524C23.0757 14.9202 23.0757 14.988 23.0072 14.988C22.8018 15.3271 22.6648 15.5984 22.4594 15.9375C22.3225 16.2088 22.254 16.48 22.117 16.7513C22.0486 17.0226 21.9801 17.2939 21.9116 17.633C21.9116 17.8364 21.8432 18.0399 21.7062 18.2433C21.5008 18.7181 21.3638 19.2606 21.1584 19.7354C20.953 20.2101 20.8161 20.7527 20.6791 21.2952C20.6106 21.4987 20.5422 21.7699 20.5422 21.9734C20.5422 22.1769 20.4052 22.3803 20.4052 22.5838C20.3367 22.7872 20.2683 22.9907 20.2683 23.1941C20.2683 23.3976 20.1998 23.5332 20.1313 23.7367C20.1313 23.8723 20.0628 23.9402 20.0628 24.0758C20.0628 24.2114 20.0628 24.2792 20.0628 24.4149C19.9259 25.0253 19.7889 25.6356 19.5835 26.246C19.3781 26.8564 19.2412 27.3989 19.1042 28.0093C18.9673 28.3484 18.8303 28.6875 18.7618 29.0266C18.6934 29.3657 18.4879 29.637 18.351 29.9761C18.2825 30.1117 18.2825 30.2473 18.2825 30.383C18.2141 30.7899 18.0771 31.129 18.0086 31.5359C17.9402 31.9428 17.8032 32.2819 17.6663 32.6888C17.5293 33.0957 17.3924 33.4348 17.3239 33.8417C17.1869 34.2487 17.05 34.5878 16.9131 34.9947C16.8446 35.1981 16.7761 35.3338 16.7076 35.5372C16.6392 35.605 16.5707 35.7407 16.5022 35.8763C16.5022 36.012 16.4337 36.1476 16.3653 36.2832C16.2968 36.6902 16.1598 37.0971 16.0914 37.504C16.0229 37.9109 15.886 38.25 15.6805 38.6569C15.6121 38.996 15.4066 39.4029 15.1327 39.6742C14.9958 39.8777 14.7904 40.0811 14.5165 40.0811C14.448 40.0811 14.3795 40.1489 14.2426 40.1489L14.1056 40.0133C13.8317 40.1489 13.5578 40.0811 13.284 39.9455C13.2155 39.8777 13.147 39.8777 13.0785 39.8777C12.9416 39.8098 12.8046 39.8777 12.8046 40.0133C12.8046 40.0811 12.7362 40.1489 12.7362 40.2167C12.6677 40.3524 12.5992 40.2846 12.5992 40.2167C12.5992 40.1489 12.5307 40.0811 12.4623 40.0133C12.3253 39.9455 12.1884 39.8777 12.0514 39.8098C11.9145 39.6742 11.7775 39.6064 11.6406 39.4707L11.5721 39.4029C11.3667 39.2673 11.2297 39.0638 11.1613 38.8604C11.0928 38.6569 11.0928 38.3856 11.0928 38.1822C11.0928 37.9787 11.1613 37.7753 11.1613 37.5718V34.3165C11.1613 33.2992 11.2297 32.2141 11.2982 31.129C11.2982 30.5864 11.3667 30.0439 11.3667 29.5013C11.3667 28.9588 11.4352 28.4162 11.4352 27.8737C11.4352 27.6024 11.5036 27.2633 11.5036 26.992C11.5036 26.7207 11.5036 26.3816 11.5721 26.1104V25.4322C11.5721 25.2287 11.5721 24.9574 11.5036 24.754V23.1941C11.5036 22.7194 11.5721 22.1769 11.5721 21.7021V20.8883C11.5721 20.617 11.5721 20.3457 11.6406 20.0745C11.6406 20.0745 11.7091 20.0066 11.6406 20.0066L11.5721 20.1423C11.5036 20.4814 11.4352 20.7527 11.2982 21.0239C11.1613 21.2952 11.0928 21.6343 11.0243 21.9056C11.0243 22.109 10.9559 22.3125 10.8189 22.4481L10.545 22.9229C10.4081 23.262 10.2026 23.6689 10.0657 24.008C9.92875 24.3471 9.72333 24.6862 9.58638 25.0931C9.38096 25.6356 9.17554 26.246 9.03859 26.7886C8.97012 27.0598 8.90164 27.3311 8.83317 27.6024C8.7647 27.8737 8.69622 28.1449 8.55927 28.4162L8.35385 28.9588L8.14843 29.5013C8.07996 29.7726 7.94301 30.0439 7.80607 30.3152C7.66912 30.5864 7.53217 30.8577 7.39522 31.129C7.25828 31.4003 7.12133 31.875 6.98438 32.2819C6.84743 32.6888 6.71049 33.0279 6.50507 33.4348C6.29965 33.9096 6.1627 34.3843 6.02575 34.7912C5.8888 35.1981 5.68338 35.605 5.47796 36.012C5.40949 36.2832 5.27254 36.4867 5.06712 36.6902C4.8617 37.0292 4.51933 37.1649 4.10849 37.0971C3.90307 37.0292 3.69765 37.0971 3.62918 37.3005C3.5607 37.3005 3.49223 37.3683 3.42375 37.3683C3.28681 37.3683 3.21833 37.3683 3.21833 37.3683C3.01291 37.2327 2.80749 37.1649 2.5336 37.1649C2.32818 37.0971 2.19123 37.0292 2.05428 36.8936C1.91733 36.758 1.84886 36.5545 1.84886 36.3511C1.78039 35.6729 1.71191 34.9269 1.71191 34.2487C1.71191 33.9774 1.78039 33.6383 1.78039 33.367C1.78039 33.0279 1.78039 32.7566 1.84886 32.4175C1.91733 32.0784 1.91733 31.6715 1.91733 31.3324C1.91733 30.9933 1.91733 30.5864 1.98581 30.2473V28.9588C1.98581 28.484 2.05428 28.0771 2.05428 27.6702C2.05428 27.2633 2.05428 26.7207 2.05428 26.3138C2.05428 26.0425 2.12276 25.7713 2.12276 25.5C2.12276 25.2287 2.12276 24.9574 2.19123 24.6862C2.2597 24.2114 2.2597 23.8045 2.2597 23.3976C2.2597 22.9907 2.32818 22.5838 2.32818 22.109C2.39665 21.7699 2.39665 21.4308 2.46512 21.0917C2.46512 20.7527 2.5336 20.4136 2.5336 20.0745C2.5336 19.7354 2.67054 19.2606 2.67054 18.9215C2.67054 18.5824 2.73902 18.1077 2.80749 17.7686C2.87597 17.4295 2.94444 16.9548 2.94444 16.5479C2.94444 16.1409 3.08139 15.734 3.08139 15.2593C3.14986 14.3777 3.35528 13.496 3.49223 12.6144C3.5607 12.4109 3.5607 12.2753 3.62918 12.0718C3.62918 11.8683 3.62918 11.7327 3.69765 11.5292C3.69765 11.1902 3.90307 10.8511 4.24544 10.7832C4.38238 10.7154 4.51933 10.6476 4.65628 10.6476C4.79323 10.6476 4.93017 10.6476 5.06712 10.5798H5.13559H5.20407C5.34102 10.6476 5.54644 10.7154 5.68338 10.7832C5.8888 10.8511 6.02575 10.9867 6.1627 11.1902C6.23117 11.258 6.29965 11.3936 6.36812 11.3936C6.50507 11.4614 6.64201 11.5971 6.71049 11.7327C6.77896 11.8683 6.84743 12.0718 6.98438 12.2074C7.05286 12.3431 7.05286 12.5465 7.05286 12.75C7.05286 12.9534 7.05286 13.1569 6.98438 13.3604C6.91591 13.6995 6.91591 14.0386 6.84743 14.4455C6.77896 14.7846 6.71049 15.1915 6.64201 15.5306C6.64201 15.734 6.57354 16.0053 6.57354 16.2088C6.50507 16.6835 6.50507 17.0904 6.50507 17.5652C6.50507 18.0399 6.50507 18.5146 6.50507 18.9894C6.50507 19.125 6.50507 19.3284 6.43659 19.4641C6.36812 19.6675 6.36812 19.871 6.36812 20.0745V21.2952C6.36812 21.4987 6.36812 21.7021 6.29965 21.9734C6.29965 22.2447 6.29965 22.516 6.29965 22.855V23.7367C6.29965 24.008 6.29965 24.2792 6.29965 24.5505C6.29965 24.8218 6.29965 25.0931 6.29965 25.3644V26.5851C6.29965 26.992 6.23117 27.3989 6.23117 27.8058C6.23117 28.0093 6.23117 28.1449 6.1627 28.3484C6.1627 28.3484 6.1627 28.5519 6.1627 28.7553C6.1627 28.8231 6.1627 28.891 6.23117 28.9588C6.36812 28.6875 6.43659 28.4162 6.50507 28.1449C6.77896 27.1277 7.12133 26.0425 7.39522 25.0931C7.66912 24.1436 7.94301 23.0585 8.35385 21.9734C8.62775 21.0917 8.90164 20.2779 9.24401 19.4641C9.58638 18.6503 9.92875 17.8364 10.2711 16.9548C10.6135 16.2766 10.8874 15.5984 11.1613 14.9202C11.4352 14.242 11.7775 13.496 12.0514 12.8856C12.1199 12.75 12.1884 12.6144 12.2568 12.4109L12.5307 11.9362C12.5992 11.8005 12.6677 11.6649 12.8046 11.5971C13.0785 11.3936 13.284 11.1902 13.4209 10.9189C13.4894 10.7832 13.5578 10.7154 13.6948 10.7154C13.8317 10.7154 13.9002 10.6476 14.0372 10.5798C14.3795 10.3763 14.7904 10.3763 15.0643 10.5798C15.2697 10.7154 15.5436 10.8511 15.749 10.9867C15.9544 11.1223 16.1598 11.3258 16.2968 11.5971C16.6392 12.2074 16.7761 12.8178 16.7761 13.496C16.7761 13.6316 16.7761 13.8351 16.7076 13.9707C16.6392 14.242 16.5707 14.5133 16.5707 14.7846C16.5707 15.0558 16.5022 15.3271 16.4337 15.5306C16.3653 15.734 16.3653 15.9375 16.3653 16.1409C16.3653 16.3444 16.3653 16.5479 16.2968 16.8191C16.2283 17.0904 16.2283 17.4295 16.2283 17.7008C16.2283 17.9721 16.1598 18.2433 16.1598 18.5824C16.0914 18.7859 16.0914 19.0572 16.0914 19.2606C16.0914 19.4641 16.0914 19.7354 16.0229 19.9388C15.9544 20.4136 15.9544 20.8883 15.9544 21.4308V22.855C15.9544 23.1941 15.886 23.5332 15.886 23.8723C15.886 24.2114 15.8175 24.5505 15.8175 24.8896C15.8175 24.9574 15.8175 24.9574 15.8175 25.0253C15.8175 25.0931 15.8175 25.1609 15.8175 25.2287C15.8175 25.6356 15.8175 25.9747 15.749 26.3816C15.6805 26.7207 15.6805 27.1277 15.6805 27.5346C15.6805 27.9415 15.6121 28.1449 15.6121 28.4162C15.6121 28.6875 15.5436 29.0266 15.4751 29.2979C15.4751 29.4335 15.4751 29.5013 15.4751 29.637C15.4751 29.7726 15.4066 29.8404 15.4066 29.9761C15.3382 30.1117 15.3382 30.1795 15.3382 30.3152C15.3382 30.4508 15.3382 30.5864 15.2697 30.6542C15.2697 30.8577 15.2012 31.129 15.2012 31.3324C15.2012 31.5359 15.1327 31.8072 15.1327 32.0106C15.0643 32.2819 15.0643 32.3497 15.0643 32.3497Z" fill="#D6006C"/>
    <path d="M41.5634 19.5997C41.6319 19.871 41.5634 20.2101 41.2895 20.4136C41.221 20.4814 41.1526 20.5492 41.0156 20.5492C40.9472 20.5492 40.8102 20.617 40.7417 20.6848C40.6733 20.7527 40.6048 20.8205 40.6048 20.8205C40.5363 20.8205 40.5363 20.8883 40.4678 20.9561C40.3309 21.2274 40.1939 21.4309 39.92 21.6343C39.7146 21.77 39.5092 21.9734 39.3038 22.1769C38.8929 22.5838 38.3452 22.9229 37.8658 23.262C37.3181 23.5332 36.7703 23.8723 36.2909 24.2114C35.8116 24.5505 35.2638 24.8896 34.7845 25.2287C34.3052 25.5678 33.8259 25.9747 33.3466 26.3817C33.0727 26.6529 32.7988 26.8564 32.5249 27.0598C32.251 27.2633 31.9771 27.4668 31.7032 27.6024C31.5663 27.6702 31.4978 27.738 31.4293 27.8059C31.3609 28.4162 31.2239 28.9588 31.0185 29.5692C30.8131 30.1795 30.6761 30.7899 30.5392 31.3325C30.4022 31.9428 30.1968 32.5532 29.9229 33.1636C29.649 33.7739 29.4436 34.3843 29.3066 35.0625C29.3066 35.1981 29.2382 35.266 29.2382 35.4016C29.1697 35.4694 29.1012 35.5372 28.9643 35.6051C28.8273 35.6051 28.7589 35.6729 28.7589 35.8085C28.6904 36.0798 28.6219 36.2833 28.4165 36.4867C28.2795 36.6902 28.1426 36.8258 27.9372 37.0293C27.6633 37.3005 27.3894 37.504 27.1155 37.6396C26.8416 37.7753 26.4992 37.9109 26.1569 38.0465C25.9514 38.1144 25.746 38.1822 25.5406 38.1144L24.9243 38.0465C24.6504 38.0465 24.3081 37.9109 24.0342 37.8431C23.7603 37.7075 23.4864 37.6396 23.2125 37.504C23.144 37.4362 23.0755 37.4362 23.0755 37.3684L23.0071 37.3005C22.1854 37.0971 21.5691 36.4867 21.2952 35.6729L21.1583 35.3338C21.0898 35.266 21.0898 35.1303 21.0213 34.9947C20.7474 34.5878 20.6105 34.113 20.4735 33.5705C20.4051 33.0958 20.3366 32.5532 20.4051 32.0106V31.8072C20.6105 30.8577 20.8844 29.9082 21.0898 29.0266C21.3637 28.145 21.5691 27.3989 21.7745 26.7886C21.98 26.1782 22.2539 25.3644 22.5962 24.6184V24.4149C22.6647 24.3471 22.7332 24.2793 22.8016 24.1436C23.0755 23.5332 23.4179 22.9229 23.7603 22.3125C24.1026 21.77 24.5135 21.1596 24.9928 20.6848C25.4036 20.2779 25.8145 19.871 26.2253 19.5319C26.6362 19.1928 27.184 18.9215 27.7317 18.7859C27.9372 18.7181 28.2111 18.7181 28.4165 18.7859C28.6219 18.9215 28.8273 18.9894 29.0327 19.0572C29.2382 19.125 29.4436 19.2606 29.649 19.3285C29.9229 19.4641 30.1283 19.5997 30.2653 19.871C30.4022 20.2101 30.6076 20.4814 30.8131 20.8205C31.0185 21.0918 31.1554 21.4309 31.3608 21.77C31.5663 22.2447 31.7032 22.7194 31.7717 23.262V25.0931C32.1141 24.8896 32.388 24.6862 32.6618 24.4827C32.9357 24.2793 33.2096 24.0758 33.552 23.8723L34.2367 23.4654C34.4422 23.3298 34.6476 23.1942 34.9215 23.0585C35.6747 22.516 36.4964 22.109 37.3865 21.6343C38.2082 21.2274 39.0299 20.8205 39.8516 20.3458L40.4678 20.0745C40.6733 20.0067 40.8787 19.871 41.0156 19.6676C41.0841 19.5997 41.1526 19.5319 41.2211 19.5319C41.4265 19.6676 41.4949 19.6676 41.5634 19.5997ZM28.1426 24.3471C28.1426 24.1436 28.1426 24.008 28.2111 23.8045C28.2111 23.6011 28.2111 23.4654 28.1426 23.262C28.0741 23.262 28.0056 23.262 27.9372 23.3298C27.6633 23.5333 27.3894 23.7367 27.184 24.008C26.9785 24.2793 26.8416 24.6184 26.7046 24.8896C26.4992 25.2965 26.2938 25.7035 26.1569 26.0426C25.9514 26.4495 25.8145 26.8564 25.6091 27.2633C25.5406 27.5346 25.4721 27.8059 25.3352 28.0093C25.1982 28.2806 25.1298 28.484 25.0613 28.7553C24.9928 28.9588 24.9243 29.2301 24.8559 29.4335C24.7874 29.637 24.7189 29.9083 24.6504 30.1117C24.582 30.383 24.5135 30.5864 24.445 30.7899C24.3765 30.9934 24.3081 31.1968 24.2396 31.4681C24.1711 31.6037 24.1711 31.8072 24.1711 31.9428C24.1711 32.4854 24.3081 33.0279 24.445 33.5705C24.582 33.9774 24.7874 34.0452 25.0613 33.7061C25.2667 33.5027 25.4721 33.2992 25.6091 33.0958L26.0884 32.4176C26.1569 32.2819 26.2938 32.0785 26.3623 31.9428C26.4307 31.8072 26.4992 31.6037 26.5677 31.4003C26.5677 31.129 26.6362 30.9255 26.7731 30.7221C26.8416 30.5864 26.8416 30.5186 26.8416 30.383C26.7731 30.1117 26.7731 29.8404 26.9101 29.5692C26.9785 29.2979 27.1155 29.0266 27.184 28.6875C27.2524 28.3484 27.4579 27.9415 27.5263 27.5346C27.6633 27.1277 27.7317 26.7886 27.8002 26.3817C27.8687 26.0426 27.9372 25.6356 27.9372 25.2965C28.0741 25.0931 28.1426 24.754 28.1426 24.3471Z" fill="#D6006C"/>
    <path d="M52.5193 15.4627C52.6562 16.0053 52.5878 16.3444 52.3139 16.5478C52.04 16.6835 51.8346 16.8869 51.5607 17.0226L50.8759 17.5651L50.1912 17.9042C49.9858 18.0399 49.7119 18.1755 49.5065 18.3111C49.3695 18.379 49.2326 18.4468 49.0956 18.5824C48.9587 18.7181 48.8217 18.8537 48.6848 18.9893C48.5478 19.125 48.4109 19.1928 48.2739 19.3284C47.9316 19.5319 47.6577 19.8032 47.3838 20.0066C47.1099 20.2101 46.7675 20.4814 46.4936 20.617C46.2197 20.8205 45.9458 21.0917 45.6719 21.2952C45.398 21.5665 45.1926 21.8377 44.9187 22.0412C44.8502 22.109 44.7818 22.1768 44.7133 22.2447C44.6448 22.3125 44.5764 22.3803 44.5079 22.4481C44.3709 22.5837 44.234 22.6516 44.1655 22.7872C44.0286 22.9228 43.9601 23.1263 43.8916 23.2619C43.8231 23.5332 43.6862 23.7367 43.5492 23.9401C43.3438 24.1436 43.2069 24.2792 43.0699 24.4827C43.0015 24.6183 42.8645 24.6861 42.796 24.8218C42.7276 24.9574 42.5906 25.1609 42.4537 25.2965C42.3167 25.4322 42.2483 25.6356 42.1113 25.7712C41.9744 25.9747 41.8374 26.246 41.7005 26.4494C41.5635 26.6529 41.4266 26.8564 41.2896 27.0598L41.2211 27.2633C41.1527 27.6024 41.0842 27.8736 40.8788 28.1449C40.7418 28.4162 40.6049 28.7553 40.4679 29.0266C40.3995 29.0944 40.331 29.23 40.331 29.3657C40.2625 29.5013 40.194 29.5691 40.194 29.7048C40.1256 29.976 40.0571 30.1795 39.8517 30.383C39.7147 30.5864 39.5778 30.7899 39.4408 30.9933C39.3039 31.1968 39.1669 31.4681 39.0985 31.6715C39.03 31.875 38.893 32.0784 38.7561 32.3497C38.6191 32.621 38.4822 32.8923 38.3453 33.0957C38.2083 33.2992 38.0714 33.5705 37.8659 33.8417C37.7975 33.9774 37.729 34.0452 37.592 34.0452C37.4551 34.0452 37.3182 34.113 37.2497 34.113C37.1812 34.113 37.0443 34.113 36.9758 34.0452C36.8388 33.9774 36.7704 33.9774 36.6334 33.9774L36.291 34.113H36.0856C35.9487 34.0452 35.8802 33.9095 35.7433 33.8417C35.6748 33.7739 35.6063 33.6383 35.5378 33.5026C35.5378 33.367 35.4694 33.2314 35.3324 33.1635C35.127 32.8923 35.0585 32.5532 35.127 32.2141C35.1955 32.0784 35.1955 31.9428 35.1955 31.8072V31.4002C35.2639 31.129 35.2639 30.8577 35.3324 30.5864C35.4009 30.3151 35.4694 30.0439 35.5378 29.7726C35.6063 29.3657 35.6748 29.0266 35.8117 28.6197L36.1541 27.4667C36.2226 27.3989 36.2226 27.3311 36.2226 27.2633C36.2226 27.1955 36.291 27.1276 36.291 26.992C36.428 26.5173 36.7019 25.8391 36.9073 24.9574C37.1127 24.0758 37.5236 23.1263 37.8659 21.9734C38.0029 21.4308 38.2083 20.8883 38.3453 20.3457C38.4822 19.8032 38.6876 19.2606 38.893 18.7181C39.03 18.3111 39.2354 17.9042 39.3724 17.5651L39.8517 16.4122C39.8517 16.3444 39.8517 16.2766 39.9201 16.2766C39.9886 16.2087 39.9886 16.2087 39.9886 16.1409C40.0571 15.9375 40.1256 15.8018 40.331 15.6662C40.4679 15.5306 40.6049 15.4627 40.8103 15.3949H40.8788C41.1527 15.4627 41.4266 15.4627 41.7005 15.5306C41.9744 15.5984 42.2483 15.734 42.3852 16.0053C42.4537 16.0731 42.5221 16.1409 42.6591 16.1409C42.8645 16.3444 43.0015 16.5478 43.0699 16.8191C43.1384 17.0226 43.1384 17.3617 43.1384 17.633C43.0699 17.7008 43.0699 17.8364 43.0699 17.9042C43.0699 17.972 43.0699 18.1077 43.0699 18.1755C43.0699 18.3111 43.0699 18.379 43.0015 18.5146C42.8645 18.7859 42.7276 19.125 42.6591 19.4641C42.5906 19.8032 42.4537 20.0744 42.3167 20.4135C42.2483 20.5492 42.2483 20.7526 42.1798 20.8883C42.1798 21.0239 42.1113 21.2274 42.0428 21.363C42.1798 21.363 42.2483 21.2952 42.3167 21.1595C42.3852 21.0917 42.4537 21.0239 42.5221 20.9561C42.8645 20.6848 43.2069 20.3457 43.5492 20.0744C43.8916 19.8032 44.234 19.4641 44.5764 19.2606C44.9187 19.0572 45.398 18.6502 45.8089 18.3111C46.2197 17.972 46.6306 17.7008 47.0414 17.3617C47.4522 17.0226 47.7261 16.8869 48.0685 16.6835C48.4109 16.48 48.8217 16.2766 49.1641 16.1409C49.438 16.0053 49.7119 15.9375 50.0542 15.9375C50.2597 15.9375 50.4651 15.8697 50.6705 15.734C50.8759 15.5984 51.0813 15.5306 51.2868 15.4627C51.4922 15.3949 51.6976 15.3949 51.903 15.2593C52.1769 15.0558 52.4508 15.1236 52.5193 15.4627Z" fill="#D6006C"/>
    <path d="M73.6091 19.8032C73.4037 20.0745 73.1983 20.4136 73.1298 20.8205C72.9929 21.1596 72.8559 21.4987 72.582 21.8378L72.2396 22.3125L71.8973 22.7872C71.8973 22.9229 71.8288 23.1263 71.6919 23.262C71.8973 23.1942 71.9658 22.9907 71.8973 22.8551C71.9658 22.8551 72.0342 22.8551 72.0342 22.7872C72.1027 22.7872 72.1712 22.7194 72.1712 22.7194C72.1027 22.8551 72.0342 22.9907 71.9658 23.1263C71.8973 23.262 71.8288 23.3976 71.6919 23.5332C71.6234 23.6689 71.5549 23.7367 71.4864 23.8723C71.418 24.008 71.3495 24.0758 71.281 24.2114V24.2793V24.3471C71.3495 24.4827 71.281 24.6862 71.1441 24.8218C71.0071 24.9574 70.8702 25.0931 70.7332 25.2287C70.5278 25.5 70.3224 25.7713 70.117 26.0426C69.9115 26.3138 69.7061 26.5851 69.5007 26.7886L68.7475 27.6024L67.9943 28.4162L67.4465 29.0266C67.2411 29.2301 67.1041 29.4335 66.8987 29.5692C66.5563 29.9082 66.1455 30.3152 65.8031 30.6543C65.3923 30.9934 64.9814 31.2646 64.5706 31.6037C64.1598 31.9428 63.6804 32.2141 63.1327 32.4176L61.6947 32.8245C61.6262 32.8923 61.4893 32.8923 61.4208 32.8923H61.2154L60.7361 32.9601C60.5307 32.9601 60.3937 33.0279 60.1883 33.0279C59.9829 33.0957 59.7775 33.0957 59.572 33.0279L59.0242 32.8923C58.6819 32.8245 58.408 32.621 58.1341 32.4176C57.9287 32.1463 57.7232 31.875 57.5178 31.6037C57.4493 31.5359 57.4494 31.4003 57.3809 31.3324C57.3124 31.2646 57.2439 31.129 57.2439 31.0612C56.97 30.6543 56.8331 30.2473 56.6961 29.7726C56.5592 29.2979 56.4907 28.8231 56.4907 28.2806C56.4907 27.9415 56.4222 27.6024 56.4222 27.2633C56.3538 26.9242 56.3538 26.5851 56.3538 26.246C56.2168 26.246 56.0799 26.3138 55.9429 26.3817L55.669 26.5851C55.5321 26.8564 55.2582 27.0598 55.0528 27.1955C54.7789 27.4668 54.5735 27.738 54.368 28.0093C54.0941 28.2806 53.8887 28.5519 53.7518 28.891C53.7518 28.9588 53.6833 29.0266 53.6833 29.0266C53.6148 29.0944 53.6148 29.0944 53.5464 29.1622C53.4779 29.2979 53.3409 29.5013 53.3409 29.637C53.3409 29.637 53.2725 29.7048 53.2725 29.7726C53.2725 29.8404 53.2725 29.8404 53.204 29.9082C53.067 29.9761 52.9986 30.1117 52.9986 30.2473C52.9986 30.383 52.9301 30.5186 52.9301 30.5864C52.9301 30.7221 52.9301 30.9255 52.9301 31.0612V31.5359C52.9301 31.8072 52.9301 32.0785 52.7931 32.3497C52.6562 32.621 52.4508 32.8245 52.3138 33.0279L51.8345 33.4348C51.6976 33.5705 51.5606 33.7061 51.3552 33.8418C51.2867 33.9096 51.1498 34.0452 51.0813 34.113C50.8074 34.1809 50.602 34.3165 50.3966 34.4521C50.1911 34.5878 49.9173 34.6556 49.7118 34.6556H49.6434C49.5064 34.6556 49.3695 34.6556 49.301 34.7234C49.2325 34.7234 49.0956 34.7234 49.0271 34.6556L48.6847 34.3165C48.6163 34.1809 48.5478 34.0452 48.6163 33.9774V32.5532C48.6847 32.0785 48.7532 31.6037 48.7532 31.129C48.7532 30.6543 48.8217 30.2473 48.8901 29.7726C48.8901 29.5692 48.9586 29.3657 49.0271 29.1622C49.0956 28.9588 49.164 28.7553 49.164 28.5519L49.3695 27.5346C49.4379 27.1955 49.5064 26.8564 49.5749 26.5173C49.6434 25.7713 49.8488 24.9574 49.9857 24.0758C50.0542 23.7367 50.1227 23.4654 50.1911 23.1263C50.2596 22.7872 50.3966 22.3803 50.465 21.9734C50.5335 21.5665 50.6705 21.1596 50.7389 20.8205C50.8074 20.4814 50.8759 20.1423 51.0128 19.9388C51.2867 18.9215 51.5606 18.1077 51.8345 17.2939C52.1084 16.4801 52.3823 15.734 52.6562 14.988C52.9301 14.242 53.2725 13.4282 53.6148 12.6822C53.9572 11.9362 54.2996 11.0545 54.7104 10.1051C55.1212 9.15559 55.6006 8.20612 56.1484 7.25665L56.6277 6.375C56.4907 5.96809 56.6961 5.69681 56.8331 5.42553C56.97 5.15426 57.3124 4.74734 57.5178 4.34043C57.7232 4.00133 57.9971 3.66223 58.3395 3.32314L58.408 3.25532C58.408 3.1875 58.4765 3.1875 58.4765 3.11968C58.6819 2.71277 58.8873 2.37367 59.1612 2.03457C59.4351 1.69548 59.709 1.35638 59.9829 1.01729C60.1198 0.81383 60.3252 0.678192 60.4622 0.542553C60.6676 0.406915 60.873 0.271277 61.0784 0.339096L61.2154 0.271277C61.3523 0.0678191 61.4893 0 61.5578 0C61.6262 0 61.7632 0 61.8317 0C61.9001 0.0678192 61.9001 0.135638 61.9001 0.203457C62.1056 0.203457 62.2425 0.203457 62.4479 0.203457C62.6533 0.203457 62.8588 0.203457 63.0642 0.203457C63.1327 0.203457 63.2011 0.203457 63.2696 0.203457C63.3381 0.203457 63.4066 0.203457 63.475 0.271277C63.9543 0.542553 64.2967 0.881649 64.5706 1.35638C64.7076 1.62766 64.8445 1.89894 64.8445 2.17021C64.913 2.50931 64.913 2.78059 64.8445 3.11968C64.8445 3.32314 64.8445 3.59442 64.776 3.79787C64.776 4.00133 64.7076 4.27261 64.6391 4.47606C64.6391 4.67952 64.5706 4.88298 64.5021 5.08644C64.4337 5.28989 64.3652 5.49335 64.2282 5.62899C64.1598 5.83245 64.0913 6.0359 63.9543 6.23936C63.8174 6.44282 63.7489 6.64628 63.7489 6.84973C63.6804 7.12101 63.612 7.46011 63.5435 7.73138C63.4066 8.00266 63.2696 8.27394 63.1327 8.61303L62.9272 9.15559C62.8588 9.35904 62.7903 9.49468 62.7218 9.69814C62.6533 9.76596 62.5849 9.9016 62.5849 10.0372C62.5164 10.1729 62.5164 10.2407 62.4479 10.3085L62.3794 10.3763C62.3794 10.4441 62.311 10.4441 62.311 10.512C62.174 10.8511 61.9686 11.1223 61.7632 11.4614C61.5578 11.7327 61.2839 12.0718 61.0784 12.3431C60.9415 12.5465 60.8046 12.6822 60.6676 12.9535C60.5991 13.1569 60.4622 13.3604 60.2568 13.5638C60.1198 13.7673 59.9829 13.9707 59.8459 14.1742C59.709 14.3777 59.572 14.5811 59.4351 14.7846C59.2981 14.9202 59.0927 15.1237 58.9558 15.2593C58.8188 15.3949 58.6134 15.5306 58.4765 15.6662L58.2026 15.8697L57.9971 16.0731L57.7232 16.6835L57.5178 16.887C57.2439 17.0904 57.0385 17.2261 56.8331 17.4295C56.6277 17.633 56.4222 17.7686 56.2168 17.9043C56.0114 18.0399 55.806 18.2434 55.7375 18.5146C55.3951 19.3963 55.0528 20.3457 54.5735 21.363C54.1626 22.3125 53.9572 23.262 53.8887 24.2793C53.9572 24.1436 54.0941 24.008 54.2311 23.8723C54.368 23.7367 54.4365 23.6689 54.5735 23.5332C56.5592 21.0918 58.8188 18.9215 61.4208 17.1582C61.7632 16.887 62.174 16.6157 62.5849 16.4122C62.9957 16.2088 63.3381 15.9375 63.6804 15.6662C64.0913 15.3949 64.5706 15.1915 65.0499 15.0559C65.4608 14.9202 65.8716 14.7168 66.214 14.5133C66.6248 14.3098 67.1041 14.3098 67.515 14.5133C67.7889 14.6489 68.0628 14.8524 68.3367 15.0559C68.6105 15.2593 68.816 15.4628 68.9529 15.734C69.0899 16.141 69.2268 16.6157 69.2953 17.0226C69.3638 17.4973 69.3638 17.9721 69.1583 18.4468V18.5824C68.8844 18.9215 68.679 19.2606 68.4051 19.5997C68.1312 19.9388 67.9258 20.2101 67.5834 20.4814C67.4465 20.617 67.2411 20.7527 67.1041 20.8205C66.9672 20.8883 66.7618 21.0239 66.6248 21.1596C66.4879 21.363 66.2824 21.4987 66.077 21.6343C65.8716 21.7699 65.6662 21.9056 65.5292 21.9734C65.2553 22.0412 65.0499 22.109 64.8445 22.2447C64.6391 22.3803 64.3652 22.4481 64.1598 22.516C63.8859 22.5838 63.612 22.7194 63.3381 22.9229L62.6533 23.4654C62.2425 23.7367 61.7632 24.008 61.2839 24.2793C60.8046 24.4827 60.3252 24.754 59.8459 24.9574C59.709 25.0253 59.572 25.0931 59.4351 25.0931H58.9558C58.8873 25.1609 58.8873 25.2965 58.8873 25.3644C58.8873 25.4322 58.8873 25.5 58.8873 25.5678C58.9558 25.8391 59.0927 26.0426 59.2297 26.246C59.3666 26.4495 59.4351 26.7207 59.5036 26.9242C59.572 27.1955 59.6405 27.3989 59.6405 27.6024C59.709 27.8737 59.7775 28.0771 59.8459 28.2806C59.9829 28.6197 60.1883 28.891 60.3937 29.1622C60.5991 29.4335 60.8046 29.7048 61.0784 29.8404C61.3523 30.0439 61.6262 30.1795 61.9686 30.1117C62.311 30.1117 62.6533 29.9761 62.9957 29.8404L63.2011 29.7048C63.2696 29.637 63.3381 29.637 63.4066 29.5692C63.9543 29.0944 64.5021 28.6197 64.9814 28.1449C65.4608 27.6702 66.0085 27.2633 66.5563 26.7207C66.8987 26.4495 67.2411 26.1104 67.5834 25.8391L68.6105 24.8896C68.816 24.6862 69.0214 24.4827 69.2268 24.2793C69.4322 24.0758 69.6377 23.8045 69.7746 23.6011C70.0485 23.1942 70.3224 22.8551 70.6648 22.4481C70.9386 22.0412 71.281 21.6343 71.6234 21.2952C71.6919 21.1596 71.7603 21.0918 71.8973 20.9561C71.9658 20.8205 72.1027 20.7527 72.1712 20.617C72.3081 20.4136 72.4451 20.2779 72.582 20.0745L72.9929 19.5997C73.1983 19.3963 73.3352 19.3285 73.4037 19.3285C73.4722 19.3285 73.4722 19.5319 73.6091 19.8032ZM57.0385 14.242C57.0385 14.4455 56.97 14.5811 56.9016 14.7168C56.8331 14.9202 56.8331 15.1237 56.9016 15.2593C57.0385 15.1237 57.1755 14.9202 57.3124 14.7168C57.8602 14.1064 58.4765 13.4282 58.9558 12.75C59.2297 12.4109 59.4351 12.0718 59.6405 11.7327C59.8459 11.3936 60.1198 11.1223 60.3252 10.7832L60.4622 10.512L60.7361 10.0372C60.8046 9.9016 60.873 9.76596 61.01 9.5625C61.1469 9.35904 61.2154 9.15559 61.2839 9.01995C61.3523 8.88431 61.4893 8.61303 61.5578 8.47739L61.7632 7.93484C61.8317 7.73138 61.9001 7.59575 61.9686 7.39229C62.0371 7.18883 62.1056 6.91755 62.174 6.7141C62.2425 6.51064 62.311 6.30718 62.3794 6.10372C62.4479 5.90027 62.5164 5.49335 62.5164 5.22207C62.5164 4.9508 62.6533 4.6117 62.6533 4.27261C62.7218 4.06915 62.7218 3.86569 62.6533 3.66223L62.4479 3.05186C62.311 3.1875 62.174 3.32314 62.0371 3.45878C61.9686 3.59442 61.9001 3.66223 61.8317 3.79787C61.7632 3.93351 61.9001 4.06915 61.8317 4.13697L61.6262 4.40825C61.5578 4.47606 61.4893 4.6117 61.4893 4.67952C61.3523 4.9508 61.2154 5.22207 61.01 5.42553C60.8046 5.62899 60.6676 5.83245 60.5991 6.10372C60.4622 6.23936 60.3252 6.44282 60.2568 6.57846C60.1883 6.78192 60.1198 6.91755 60.0513 7.05319C60.0513 7.25665 59.9144 7.39229 59.8459 7.52793C59.8459 7.59575 59.8459 7.66356 59.8459 7.73138C59.8459 7.7992 59.8459 7.86702 59.8459 7.93484C59.7775 8.07048 59.709 8.20612 59.6405 8.34176C59.572 8.47739 59.4351 8.61303 59.4351 8.74867C59.3666 8.81649 59.2981 8.95213 59.2297 9.01995C59.1612 9.15559 59.0927 9.2234 59.0242 9.35904V9.63032C59.0242 9.83378 58.9558 9.96942 58.8873 10.1051C58.6134 10.3085 58.5449 10.512 58.6134 10.7154C58.6819 10.9189 58.5449 11.1902 58.3395 11.258C58.3395 11.3258 58.3395 11.3258 58.3395 11.3936C58.3395 11.4614 58.3395 11.5293 58.3395 11.5293C58.271 11.5971 58.1341 11.6649 58.1341 11.7327C57.9287 11.8684 57.8602 12.004 57.9287 12.2074C57.9971 12.4109 57.9287 12.6144 57.7232 12.75C57.7232 12.8856 57.7232 13.0213 57.7917 13.1569C57.7232 13.1569 57.6548 13.2247 57.6548 13.2247C57.5863 13.2247 57.5178 13.2247 57.5178 13.2926V13.5638C57.5178 13.6316 57.4493 13.6995 57.3124 13.6995C57.3809 13.9029 57.4494 14.0386 57.4494 14.0386C57.1755 14.1064 57.107 14.1742 57.0385 14.242ZM59.0927 21.8378C59.0242 21.9056 59.0242 21.9734 58.9558 22.0412C58.8873 22.109 58.8873 22.1769 58.8188 22.2447C59.0927 22.1769 59.2981 22.109 59.5036 21.9734L60.873 21.1596L62.311 20.3457C62.5164 20.2101 62.7903 20.0745 62.9957 19.9388C63.6804 19.5997 64.2967 19.1928 64.8445 18.6503C65.1184 18.4468 65.3238 18.2434 65.5977 17.9721C65.8716 17.7008 66.077 17.4295 66.2824 17.1582C66.2824 16.8191 66.077 16.4801 65.7347 16.3444C65.5977 16.4122 65.4608 16.4801 65.3238 16.4801C65.1869 16.4801 65.0499 16.5479 64.913 16.6157C64.776 16.6835 64.6391 16.7513 64.5021 16.887C64.3652 17.0226 64.2282 17.0904 64.0913 17.1582C63.612 17.5652 63.2011 17.9043 62.7218 18.2434C62.2425 18.5824 61.8317 18.9215 61.4893 19.3285C61.0785 19.7354 60.5991 20.1423 60.2568 20.617C59.9144 21.0918 59.5036 21.4309 59.0927 21.8378Z" fill="#D6006C"/>
    <path d="M86.0714 20.2101C86.1398 20.2101 86.2083 20.1423 86.2083 20.0745C86.2768 19.871 86.4137 19.6676 86.4822 19.4641C86.5507 19.2606 86.6192 19.0572 86.6876 18.8537C86.7561 18.6503 86.8246 18.5146 86.9615 18.379C86.9615 18.5146 86.9615 18.6503 86.8931 18.7859C86.8246 18.9215 86.7561 19.0572 86.7561 19.1928L86.6192 19.6676C86.5507 19.8032 86.4822 20.0067 86.4137 20.1423C86.3453 20.2779 86.2768 20.4814 86.2083 20.617C86.1399 20.7527 86.0029 20.9561 85.9344 21.1596C85.866 21.363 85.729 21.5665 85.729 21.7699L85.6605 21.8378C85.6605 21.8378 85.6605 21.9056 85.5921 21.9056C85.3182 22.1769 85.1127 22.516 84.9758 22.7872C84.8389 23.1263 84.6334 23.4654 84.428 23.7367L84.3595 23.8723C84.3595 23.9402 84.2911 23.9402 84.2911 24.008C84.2226 24.008 84.2226 24.008 84.2226 24.0758C84.0856 24.008 84.0172 24.008 84.0172 24.0758C84.0172 24.1436 83.9487 24.2114 83.9487 24.2793L83.264 25.6356C83.264 25.7035 83.1955 25.7713 83.127 25.8391C83.0585 25.9069 83.127 25.9747 83.1955 25.9747C83.1955 26.0426 83.127 26.1104 83.127 26.246C83.0585 26.3138 83.0585 26.4495 82.9901 26.5173C82.9901 26.6529 82.9901 26.7886 83.127 26.8564L83.264 27.2633C83.3324 27.5346 83.4694 27.8737 83.6748 28.0771C83.8117 28.3484 84.0172 28.5519 84.1541 28.8231C84.2911 29.0944 84.4965 29.2979 84.6334 29.5013C84.7704 29.7726 84.9073 29.9761 84.9758 30.2473C85.0443 30.383 85.1127 30.5864 85.1812 30.7221C85.3866 30.9934 85.4551 31.2646 85.4551 31.6037C85.4551 31.6715 85.5236 31.8072 85.5921 31.8072L85.6605 31.875C85.6605 31.875 85.6605 31.9428 85.5921 31.875C85.5236 31.8072 85.5236 31.875 85.5236 31.9428V32.0106V32.0785C85.4551 32.1463 85.3866 32.0785 85.3182 32.0785C85.2497 32.0785 85.1127 32.0106 85.0443 32.2141C85.0443 32.2819 84.9758 32.3497 84.9758 32.4176C84.9758 32.4854 84.9073 32.5532 84.8389 32.5532H84.7704V32.621C84.7019 32.6888 84.7019 32.8245 84.7704 32.8923C84.7704 32.9601 84.7704 33.0279 84.7704 33.0957L84.9073 33.2992C84.8389 33.2992 84.7019 33.2992 84.6334 33.367C84.565 33.4348 84.565 33.4348 84.4965 33.4348C84.3595 33.367 84.1541 33.367 84.0172 33.367L83.5379 33.2992C83.1955 33.2314 82.8531 33.0957 82.5792 32.8245C82.0999 32.4176 81.7575 31.9428 81.4152 31.4003C81.0728 30.9255 80.7304 30.383 80.4565 29.9082C80.3881 29.8404 80.3196 29.7726 80.3196 29.7048C80.3196 29.637 80.2511 29.5692 80.1826 29.5013C80.0457 29.5692 79.9087 29.7048 79.8403 29.8404C79.7718 29.9082 79.7033 29.9761 79.7033 30.0439L79.5664 30.3152C79.2925 30.6543 78.9501 30.9255 78.5393 31.0612C78.3339 31.1968 78.1284 31.2646 77.923 31.4003C77.7176 31.5359 77.4437 31.6037 77.2383 31.7394C77.1698 31.8072 77.1013 31.8072 77.0329 31.875L76.8274 32.0785C76.622 32.2141 76.4166 32.2819 76.2112 32.3497L75.5949 32.4854L74.9787 32.621L74.3624 32.7567C74.0885 32.8245 73.8146 32.8245 73.5407 32.8923C73.2668 32.9601 72.9929 32.9601 72.719 32.8923L71.8973 32.8245C71.6234 32.8245 71.3496 32.6888 71.0757 32.5532C70.9387 32.4854 70.8018 32.4176 70.6648 32.2819C70.5279 32.2141 70.3909 32.0785 70.254 32.0106L69.9116 31.7394C69.7747 31.6715 69.6377 31.5359 69.5692 31.4681C69.3638 31.1968 69.1584 30.9255 68.953 30.6543C68.816 30.4508 68.6791 30.1795 68.5421 29.9761C68.4052 29.7726 68.3367 29.5013 68.1998 29.2979C68.1313 29.0944 68.0628 28.891 67.9943 28.6875C67.9259 28.484 67.9259 28.2128 67.9259 28.0093C67.8574 27.6024 67.8574 27.2633 67.9259 26.8564C67.9943 26.4495 68.0628 26.1104 68.0628 25.7713C68.1313 25.4322 68.1998 25.0931 68.3367 24.754C68.4737 24.4149 68.6106 24.1436 68.7476 23.8045C69.0214 23.262 69.2953 22.7872 69.5692 22.2447C69.8431 21.7699 70.1855 21.2274 70.5279 20.7527C70.7333 20.4814 70.9387 20.2101 71.0757 19.9388C71.2126 19.6676 71.4865 19.3963 71.6234 19.125C71.8973 18.7859 72.2397 18.379 72.5136 18.1077L73.5407 17.0904C73.8831 16.7513 74.2254 16.4801 74.5678 16.141C74.9102 15.8019 75.2525 15.5306 75.5949 15.1915C75.6634 15.1237 75.7319 14.988 75.6634 14.8524C75.6634 14.7168 75.5949 14.5133 75.5949 14.3777C75.5949 14.242 75.5949 14.0386 75.5949 13.9029C75.5949 13.496 75.5264 13.0891 75.458 12.6822C75.3895 12.2753 75.3895 11.8684 75.3895 11.4614V10.1729C75.3895 9.9016 75.3895 9.5625 75.3895 9.29122V8.40957C75.3895 8.27394 75.3895 8.07048 75.458 7.93484C75.5264 7.7992 75.5264 7.59575 75.5949 7.46011C75.7319 7.25665 75.8688 6.98537 75.9373 6.78192C76.0058 6.57846 76.0058 6.30718 76.0742 6.10372C76.1427 5.90027 76.2112 5.69681 76.3481 5.49335C76.4851 5.2899 76.622 5.15426 76.759 4.9508C76.8274 4.88298 76.9644 4.81516 77.0329 4.81516C77.1013 4.81516 77.1013 4.74734 77.1698 4.67952L77.3068 4.54388C77.4437 4.20479 77.7176 3.86569 77.9915 3.66224C78.3339 3.39096 78.6762 3.1875 79.0871 3.05186C79.4294 2.91622 79.7718 2.91622 80.1142 3.05186L80.4565 3.11968H80.7989C81.0728 3.1875 81.3467 3.25532 81.5521 3.32314C81.826 3.39096 82.0314 3.5266 82.2369 3.73005C82.3053 3.79787 82.3738 3.86569 82.5107 3.86569C82.5792 3.86569 82.6477 3.93351 82.7162 4.00133C83.0585 4.34043 83.3324 4.74734 83.3324 5.22208C83.3324 5.42553 83.4009 5.62899 83.4009 5.76463C83.4009 5.90027 83.4009 6.17154 83.4009 6.30718V6.7141C83.4009 6.84974 83.4009 6.98537 83.3324 7.12101C83.264 7.46011 83.1955 7.86702 83.1955 8.20612C83.1955 8.34176 83.1955 8.47739 83.127 8.61303C83.0585 8.74867 82.9216 8.95213 82.9216 9.08777C82.8531 9.29122 82.7846 9.42686 82.7162 9.5625C82.5107 9.83378 82.3053 10.1729 82.1684 10.4441C82.0314 10.7154 81.7575 11.0545 81.5521 11.3258C81.4836 11.4614 81.4152 11.5293 81.3467 11.6649C81.2782 11.8005 81.1413 11.9362 81.0728 12.0718L80.525 12.6144L80.1142 12.8856C80.0457 13.0213 79.9088 13.1569 79.7718 13.2247C79.7033 13.2926 79.6349 13.3604 79.6349 13.4282C79.6349 13.496 79.5664 13.6316 79.5664 13.6995C79.361 14.4455 79.4294 15.1915 79.6349 15.8697C79.7033 16.2088 79.8403 16.5479 79.9087 16.8191C79.9772 17.0904 80.0457 17.4295 80.1142 17.8364C80.2511 18.379 80.3881 18.8537 80.525 19.3285C80.662 19.8032 80.7989 20.2779 80.9359 20.8205C81.0043 21.0918 81.0728 21.4309 81.2097 21.7021C81.3467 21.9734 81.4152 22.2447 81.5521 22.5838L81.7575 23.262C81.826 23.4654 81.8945 23.7367 81.963 23.9402C82.0314 24.0758 82.0314 24.2114 82.0999 24.3471C82.1684 24.4827 82.2369 24.6184 82.2369 24.754C82.3053 24.6184 82.4423 24.4149 82.5792 24.2793C82.7162 24.1436 82.7846 23.9402 82.9216 23.8045C83.127 23.5332 83.3324 23.262 83.4694 22.9229C83.6063 22.6516 83.7433 22.3803 83.9487 22.109C84.1541 21.8378 84.2911 21.4987 84.428 21.1596C84.565 20.8205 84.7019 20.5492 84.9073 20.2101C85.0443 19.9388 85.1812 19.5997 85.3182 19.2606C85.4551 18.9215 85.5921 18.5824 85.729 18.2434L86.0714 17.5652C86.1398 17.2939 86.2768 17.0904 86.4137 16.887C86.4822 16.7513 86.5507 16.7513 86.4822 16.7513C86.6192 16.6835 86.6876 16.5479 86.6876 16.4122V16.3444V16.2766C86.7561 16.141 86.8931 16.141 86.8931 16.2766C86.9615 16.3444 86.9615 16.4122 86.9615 16.4801L87.03 16.5479C87.0985 16.6157 87.167 16.6835 87.167 16.7513V16.9548C87.167 17.2939 87.0985 17.633 86.8931 17.9721C86.8246 18.1077 86.7561 18.3112 86.7561 18.4468C86.6876 18.5824 86.6876 18.6503 86.6876 18.7181C86.6876 18.7859 86.6876 18.9215 86.6192 18.9215C86.5507 18.9215 86.4822 18.9894 86.5507 19.0572C86.5507 19.1928 86.4822 19.3285 86.3453 19.4641C86.2768 19.5319 86.2083 19.5997 86.2083 19.7354C86.2083 19.8032 86.1398 19.9388 86.0714 20.0066C86.0029 20.0745 86.0029 20.2101 86.0714 20.2101C85.9344 20.2779 85.9344 20.3457 85.9344 20.3457C85.9344 20.3457 85.9344 20.4814 86.0029 20.4136C86.0714 20.3457 86.1398 20.2779 86.0714 20.2101ZM76.5535 19.4641C76.4851 19.5319 76.4166 19.5319 76.4166 19.5997C76.3481 19.6676 76.2796 19.6676 76.2796 19.7354C76.1427 19.871 76.0058 19.9388 75.8688 20.0745C75.7319 20.2101 75.5949 20.3457 75.458 20.4814L75.0471 20.9561C74.9102 21.0918 74.7732 21.2952 74.6363 21.4987L74.3624 21.9056C74.2939 22.0412 74.157 22.1769 74.02 22.3125C73.8146 22.5838 73.6092 22.8551 73.4722 23.1263C73.3353 23.3298 73.1983 23.6011 73.0614 23.8045C72.9244 24.008 72.7875 24.2793 72.6505 24.4827C72.5821 24.6184 72.5136 24.8218 72.3767 24.9574C72.3082 25.0931 72.1712 25.2287 72.1712 25.4322C72.0343 25.7713 71.8973 26.1782 71.7604 26.5173C71.6234 26.8564 71.555 27.2633 71.4865 27.6024C71.418 28.0771 71.3496 28.5519 71.418 29.0266C71.418 29.0944 71.418 29.1622 71.4865 29.2301C71.4865 29.2979 71.555 29.3657 71.555 29.4335C71.6919 29.7048 71.8973 29.9082 72.1712 30.1117C72.5821 30.383 73.0614 30.5186 73.5407 30.4508L74.4309 30.383H74.6363C74.7048 30.383 74.8417 30.3152 74.8417 30.2473C74.8417 30.1795 74.9102 30.1795 74.9102 30.2473C75.0471 30.3152 75.1841 30.3152 75.321 30.2473L75.7319 30.1117C76.2112 29.9761 76.622 29.7726 77.1013 29.5692C77.7861 29.2301 78.4708 28.8231 79.0871 28.3484C79.1555 28.2806 79.224 28.2128 79.2925 28.1449C79.2925 28.0771 79.2925 28.0093 79.224 27.9415C78.7447 26.992 78.3339 25.9747 78.06 25.0253C77.9915 24.754 77.923 24.5505 77.8545 24.3471C77.7861 24.1436 77.7176 23.9402 77.6491 23.7367C77.5122 23.3298 77.3752 22.8551 77.2383 22.4481C77.1013 22.0412 76.9644 21.6343 76.8274 21.1596C76.759 20.8883 76.6905 20.6848 76.6905 20.4814C76.6905 20.2779 76.5535 19.7354 76.5535 19.4641ZM79.0871 11.8005C79.224 11.6649 79.361 11.4614 79.5664 11.3258C79.7033 11.1902 79.9088 11.0545 79.9772 10.8511C80.1142 10.6476 80.1826 10.4441 80.3196 10.1729C80.3881 9.96942 80.525 9.69814 80.5935 9.49468C80.7304 9.08777 80.8674 8.68085 81.0043 8.27394C81.0728 7.86702 81.2098 7.46011 81.3467 6.98537C81.5521 6.375 81.5521 5.69681 81.4152 5.08644C81.4152 5.01862 81.3467 4.88298 81.3467 4.81516C81.2782 4.6117 81.0728 4.47607 80.7989 4.54388C80.662 4.6117 80.525 4.6117 80.4565 4.54388C80.3881 4.47607 80.1826 4.40825 80.0457 4.54388L79.4294 4.88298L79.2925 5.01862C79.1555 5.15426 79.0871 5.35771 78.9501 5.56117C78.8816 5.76463 78.8132 5.96809 78.8816 6.17154C78.8816 6.30718 78.8816 6.51064 78.8816 6.64628V7.12101C78.8816 7.25665 78.8816 7.46011 78.8816 7.59575C78.8816 7.73138 78.8132 7.93484 78.8132 8.1383C78.7447 8.54521 78.7447 8.95213 78.7447 9.35904C78.7447 9.76596 78.8132 10.1729 79.0186 10.512C79.0871 10.5798 79.0871 10.7154 79.0186 10.7832C78.9501 10.9189 78.8816 10.9867 78.9501 10.9867C79.0186 11.1223 79.0186 11.258 79.0186 11.3936C78.9501 11.4614 79.0186 11.6649 79.0871 11.8005ZM85.7975 20.9561C85.729 21.0239 85.6605 21.0918 85.5921 21.2274C85.5921 21.363 85.5236 21.4309 85.4551 21.5665C85.3866 21.7021 85.3182 21.8378 85.2497 21.9734C85.1812 22.109 85.1127 22.2447 84.9758 22.3803C84.8389 22.516 84.7704 22.6516 84.7704 22.7872C84.6334 22.8551 84.565 22.9907 84.565 23.1263C84.4965 23.262 84.4965 23.3976 84.428 23.5332C84.4965 23.3976 84.565 23.262 84.6334 23.1942C84.7019 23.0585 84.7704 22.9907 84.7704 22.8551C84.9073 22.7872 84.9758 22.7194 85.0443 22.5838L85.2497 22.2447C85.4551 21.8378 85.5921 21.4309 85.7975 20.9561C85.7975 20.8883 85.7975 20.8205 85.866 20.8205C85.9344 20.7527 85.866 20.7527 85.7975 20.6848C85.7975 20.7527 85.7975 20.7527 85.7975 20.8205C85.7975 20.8883 85.7975 20.9561 85.7975 20.9561ZM85.866 20.3457C85.866 20.4136 85.866 20.4136 85.9344 20.4136V20.4814L86.0029 20.5492H86.0714C86.0029 20.4814 85.9344 20.4136 85.866 20.3457Z" fill="#5A7AB7"/>
    <path d="M98.3965 26.5173C98.328 26.4495 98.2596 26.4495 98.1911 26.5851C98.1226 26.7886 98.0541 26.992 97.9857 27.1277C97.8487 27.2633 97.7802 27.4668 97.7118 27.6702C97.6433 27.8737 97.6433 28.0093 97.5748 28.2128C97.5748 28.3484 97.5063 28.5519 97.4379 28.6875C97.3694 28.891 97.3009 29.0266 97.3009 29.2301C97.3009 29.2979 97.3009 29.2979 97.2325 29.3657C97.164 29.4335 97.164 29.5692 97.164 29.637C97.164 29.7048 97.164 29.7048 97.164 29.7726C97.164 29.9083 97.0955 29.9761 97.0955 30.0439C97.027 30.1795 97.027 30.2473 97.027 30.3152C96.9586 30.3152 96.9586 30.3152 96.9586 30.383C96.8901 30.4508 96.8901 30.5864 96.8216 30.6543C96.8901 30.7221 96.8901 30.7899 96.8901 30.8577C96.8216 30.9255 96.7531 31.0612 96.7531 31.129C96.7531 31.2646 96.6847 31.4003 96.6162 31.4681C96.6162 31.6716 96.6162 31.875 96.5477 32.0785C96.4792 32.2819 96.4792 32.4854 96.4792 32.6888C96.4792 32.8245 96.4108 32.8923 96.4108 33.0279C96.3423 33.2992 96.2738 33.5705 96.2738 33.8418C96.2738 34.113 96.1369 34.3843 96.1369 34.5878C96.0684 34.7912 96.0684 34.9947 96.0684 35.1981C96.0684 35.4016 96.0684 35.6051 96.1369 35.8085C96.1369 35.9442 96.1369 36.012 96.0684 36.1476C96.0684 36.2154 95.9999 36.2833 95.9999 36.3511C95.9999 36.4189 95.9999 36.4867 95.9315 36.5545C95.9315 36.6902 95.863 36.8936 95.726 36.9614C95.6576 36.8258 95.5891 36.6902 95.5891 36.5545C95.5891 36.4867 95.5206 36.4189 95.5206 36.4189C95.5206 36.4189 95.3837 36.4867 95.3837 36.5545C95.3837 36.6223 95.3837 36.6902 95.3152 36.758C95.2467 36.8258 95.2467 36.9614 95.3152 37.0293C95.3152 37.0971 95.3152 37.1649 95.2467 37.0971C95.1782 37.0971 95.1098 37.0971 95.1098 37.1649H95.0413C95.0413 37.2327 95.0413 37.3005 95.1098 37.3005C95.1782 37.3005 95.1098 37.3684 95.1098 37.4362C95.1098 37.504 94.9728 37.4362 94.9728 37.4362C94.9043 37.3684 94.9043 37.3684 94.8359 37.3005L94.7674 37.2327L94.6989 37.1649C94.4935 37.0293 94.2881 36.8258 94.2196 36.5545C94.0827 36.012 94.0142 35.4016 94.0827 34.8591C94.2196 32.4854 94.562 30.1795 95.1782 27.8737C95.4521 27.0598 95.6576 26.3138 95.863 25.5C96.0684 24.6862 96.3423 23.9402 96.6162 23.1942C96.7531 22.6516 96.9586 22.1769 97.0955 21.6343C97.2325 21.0918 97.4379 20.617 97.5748 20.1423C97.6433 19.8032 97.7802 19.4641 97.9172 19.1928L98.2596 18.3112C98.328 18.0399 98.465 17.7686 98.5334 17.5652C98.6019 17.3617 98.6704 17.0904 98.8073 16.8192V16.7513C98.7389 16.8192 98.7389 16.887 98.6704 16.9548C98.6019 17.0226 98.6019 17.0904 98.5334 17.1583C97.9172 18.1755 97.164 19.125 96.4108 20.0067C96.2053 20.2779 95.9999 20.5492 95.7945 20.8205C95.5891 21.0918 95.4521 21.363 95.3152 21.6343C94.8359 22.4481 94.2881 23.1942 93.6718 23.9402C93.6034 24.0758 93.5349 24.1436 93.4664 24.2793C93.3979 24.3471 93.261 24.4827 93.1925 24.5505C93.0556 24.6184 92.9871 24.6862 92.8501 24.8218L92.5762 25.1609C92.3023 25.5 91.96 25.8391 91.5491 26.0426C91.0013 26.3817 90.3166 26.5851 89.7004 26.7208H89.4265C89.358 26.7208 89.221 26.7208 89.1526 26.6529C89.0156 26.5851 88.9471 26.5851 88.9471 26.5851C88.8787 26.6529 88.8787 26.7886 88.8787 26.8564L88.4678 26.4495H88.057C87.9885 26.4495 87.9885 26.5173 87.9885 26.5173C87.9885 26.5851 87.9885 26.5851 87.9885 26.6529L87.92 26.5851C87.8516 26.3817 87.7146 26.1782 87.5092 26.1104C87.1668 25.7713 86.8929 25.3644 86.8929 24.8896C86.8245 24.6862 86.8245 24.4827 86.8245 24.3471V23.7367C86.8245 23.3976 86.8929 23.0585 86.8929 22.7194C86.8929 22.4481 86.9614 22.1091 87.0299 21.8378C87.4407 19.8032 88.057 17.7686 88.8787 15.8697L90.1112 13.2247C90.522 12.3431 90.9329 11.4614 91.4122 10.5798C91.7546 9.9016 92.1654 9.22341 92.5762 8.61304C92.9871 8.00267 93.4664 7.32447 93.8772 6.78192C94.1511 6.44282 94.425 6.17155 94.6989 5.90027L95.5206 5.01862H95.5891C95.726 4.81517 95.9999 4.67953 96.2738 4.67953H96.6847L97.027 4.74735C97.2324 4.74735 97.4379 4.81517 97.6433 4.9508C97.7802 5.08644 97.9172 5.2899 97.9857 5.56118C97.9857 5.69681 98.1226 5.83245 98.1911 5.96809C98.3965 6.17155 98.5334 6.37501 98.5334 6.64628C98.5334 6.7141 98.5334 6.7141 98.5334 6.78192C98.5334 6.84974 98.5334 6.84974 98.5334 6.91756C98.6019 7.12102 98.6019 7.39229 98.5334 7.59575C98.465 7.79921 98.3965 8.00267 98.2596 8.20612C98.1226 8.40958 97.9857 8.54522 97.8487 8.68086C97.7118 8.81649 97.5748 9.01995 97.4379 9.15559C97.3694 9.22341 97.3009 9.29123 97.3009 9.35905C97.2325 9.56251 97.0955 9.76596 97.027 9.96942C96.9586 10.1729 96.8216 10.3763 96.8216 10.5798C96.7531 10.7833 96.6847 10.9189 96.6162 11.0545L96.3423 11.5293C96.2053 11.7327 96.0684 11.9362 95.9999 12.1396L95.6576 12.8178C95.5206 13.0213 95.4521 13.1569 95.3152 13.4282C95.2467 13.6317 95.1098 13.8351 94.9728 14.0386C94.7674 14.3777 94.562 14.6489 94.425 15.0559C94.2881 15.395 94.0827 15.734 93.8772 16.141C93.7403 16.4122 93.6033 16.6157 93.4664 16.887C93.3295 17.1583 93.261 17.4295 93.0556 17.633C92.9871 17.8364 92.8501 18.1077 92.7817 18.3112L92.5078 18.9894C92.5078 19.125 92.4393 19.1928 92.3708 19.3285C92.3023 19.4641 92.3023 19.5319 92.2339 19.6676C92.0969 20.0067 91.96 20.2779 91.8915 20.617C91.823 20.9561 91.6861 21.2274 91.5491 21.5665C91.4807 21.8378 91.3437 22.1091 91.3437 22.3803C91.2752 22.6516 91.2068 22.9229 91.1383 23.262C91.3437 23.1263 91.5491 22.9907 91.6861 22.8551C92.3023 22.2447 92.9186 21.5665 93.4664 20.8205L94.2881 19.5997C94.562 19.1928 94.8359 18.7859 95.1098 18.379C95.2467 18.1755 95.3837 18.0399 95.5206 17.8364L95.9999 17.3617C96.0684 17.2261 96.2053 17.0904 96.3423 17.0226C96.4792 16.9548 96.5477 16.8192 96.6847 16.6835C96.8901 16.4122 97.0955 16.141 97.3009 15.9375C97.5063 15.734 97.7118 15.4628 97.9172 15.1915C98.1226 14.9202 98.328 14.6489 98.5334 14.3777C98.7389 14.1064 98.9443 13.8351 99.1497 13.5638C99.629 13.0213 100.04 12.4787 100.519 11.9362C100.93 11.3936 101.409 10.8511 101.957 10.3763C102.163 10.2407 102.299 10.0372 102.368 9.83378C102.779 9.15559 103.121 8.54522 103.532 7.86703C103.943 7.18884 104.285 6.57846 104.696 5.96809C104.833 5.69681 105.038 5.42554 105.244 5.15426C105.449 4.88298 105.586 4.61171 105.792 4.34043C106.202 3.79788 106.682 3.25532 107.161 2.71277C107.298 2.44149 107.572 2.30586 107.846 2.23804H107.914C108.051 2.30586 108.257 2.37368 108.394 2.44149C108.531 2.50931 108.668 2.64495 108.804 2.78059C108.873 2.91623 108.941 3.05187 109.01 3.18751C109.078 3.32314 109.215 3.45878 109.352 3.5266C109.421 3.5266 109.421 3.59442 109.421 3.73006L109.626 4.40825C109.695 4.61171 109.763 4.88298 109.763 5.08644C109.763 5.35772 109.763 5.62899 109.695 5.90027C109.626 6.17155 109.489 6.37501 109.284 6.57846C109.147 6.78192 108.941 6.98538 108.804 7.12102C108.599 7.39229 108.394 7.66357 108.188 7.93485C107.983 8.20612 107.777 8.4774 107.64 8.81649C107.572 8.95213 107.503 9.01995 107.503 9.08777C107.503 9.15559 107.367 9.29123 107.367 9.42687C107.093 9.9016 106.819 10.3085 106.545 10.7832C106.271 11.258 105.997 11.6649 105.723 12.1396C105.449 12.6144 105.244 12.8856 105.038 13.2926C104.833 13.6995 104.628 14.0386 104.422 14.4455C104.285 14.6489 104.217 14.8524 104.08 15.0559C104.011 15.2593 103.943 15.4628 103.806 15.6662L103.258 17.0226C103.19 17.1583 103.121 17.2939 103.121 17.3617C103.121 17.4973 103.053 17.633 102.984 17.7008C102.71 18.4468 102.436 19.2606 102.094 20.0067C102.026 20.1423 101.957 20.2779 101.957 20.4136L101.82 20.7527C101.752 20.8205 101.752 20.8205 101.683 20.8205C101.615 20.8205 101.615 20.8205 101.683 20.8205C101.752 21.0239 101.683 21.0918 101.478 21.0918V21.1596C101.478 21.2274 101.478 21.2274 101.409 21.2274C101.341 21.2274 101.409 21.2952 101.478 21.2952C101.546 21.2952 101.546 21.2952 101.478 21.363H101.341C101.272 21.363 101.272 21.363 101.272 21.4987C101.272 21.6343 101.204 21.7021 101.204 21.8378C101.204 21.9056 101.204 21.9056 101.272 21.9056C101.341 21.9056 101.341 21.9056 101.341 21.9734C101.272 22.0412 101.204 22.1091 101.135 22.1769C101.067 22.2447 100.998 22.3125 100.998 22.4481C100.862 22.5838 100.793 22.7194 100.793 22.8551C100.793 22.9907 100.725 23.1263 100.656 23.262C100.588 23.4654 100.451 23.6011 100.382 23.8045C100.314 24.008 100.177 24.2114 100.04 24.3471C99.766 24.754 99.629 25.1609 99.4921 25.5678C99.2867 26.1104 99.0812 26.6529 98.9443 27.2633C98.8073 27.8737 98.6019 28.3484 98.465 28.9588L98.1226 30.5864C98.0541 30.7221 98.0541 30.8577 97.9857 30.9255C97.9857 31.0612 97.9172 31.1968 97.8487 31.2646C97.7802 31.2646 97.7802 31.1968 97.8487 31.129C97.9172 31.0612 97.9172 30.8577 97.9172 30.7221C97.9172 30.5864 97.9857 30.4508 98.0541 30.3152C98.0541 30.2473 98.0541 30.1795 98.0541 30.1117C98.0541 30.0439 98.0541 29.9761 98.0541 29.9083C98.1226 29.7726 98.1911 29.5692 98.1911 29.3657C98.1911 29.1622 98.2596 29.0266 98.328 28.8231C98.3965 28.5519 98.465 28.2128 98.5334 27.9415C98.6019 27.6702 98.6704 27.3989 98.7389 27.1277C98.8073 26.992 98.8758 26.7886 98.8758 26.6529C98.1911 26.7886 98.2596 26.6529 98.3965 26.5173C98.328 26.5173 98.328 26.4495 98.3965 26.3817C98.465 26.3138 98.3965 26.3138 98.328 26.246C98.2596 26.3817 98.328 26.4495 98.3965 26.5173ZM96.6162 33.2314C96.5477 33.2992 96.4792 33.4348 96.4792 33.5705C96.4108 33.7061 96.4108 33.7739 96.3423 33.9096C96.3423 33.8418 96.3423 33.7739 96.3423 33.7061C96.4108 33.5027 96.4792 33.2992 96.4792 33.0958C96.4792 32.8923 96.5477 32.6888 96.6162 32.4854C96.6162 32.4176 96.6162 32.3497 96.6847 32.3497C96.7531 32.1463 96.8216 31.9428 96.7531 31.7394H96.8216C96.8901 31.8072 96.8901 31.875 96.8216 31.9428C96.7531 32.1463 96.6847 32.3497 96.6847 32.5532C96.6847 32.8245 96.6847 33.0279 96.6162 33.2314ZM96.8216 30.4508C96.8901 30.5864 96.8216 30.6543 96.6847 30.7221C96.7531 30.6543 96.7531 30.5864 96.8216 30.4508Z" fill="#D6006C"/>
    <path d="M124.211 11.9362C124.28 12.2074 124.211 12.5465 124.006 12.75C123.937 12.8178 123.869 12.8856 123.8 12.8856C123.732 12.8856 123.595 12.9535 123.595 13.0213C123.526 13.0891 123.458 13.1569 123.458 13.1569C123.389 13.1569 123.389 13.2247 123.321 13.2926C123.184 13.5638 123.047 13.7673 122.773 13.9029C122.568 14.0386 122.362 14.242 122.157 14.4455C121.746 14.8524 121.198 15.1915 120.719 15.5306C120.171 15.8019 119.623 16.141 119.144 16.5479C118.665 16.887 118.117 17.2261 117.638 17.5652C117.158 17.9043 116.679 18.3112 116.2 18.7181C115.926 18.9894 115.652 19.1928 115.378 19.3963C115.104 19.5997 114.83 19.8032 114.556 19.9388C114.419 20.0066 114.351 20.0745 114.282 20.1423C114.214 20.7527 114.077 21.2952 113.872 21.9056C113.666 22.516 113.529 23.1263 113.392 23.6689C113.255 24.2793 113.05 24.8896 112.776 25.5C112.502 26.1104 112.297 26.7207 112.16 27.3989C112.16 27.5346 112.091 27.6024 112.091 27.738C112.091 27.8059 111.954 27.8737 111.817 27.9415C111.749 27.9415 111.612 28.0093 111.612 28.1449C111.612 28.1449 111.612 28.1449 111.612 28.2128C111.544 28.484 111.475 28.6875 111.27 28.891C111.133 29.0944 110.996 29.2301 110.79 29.4335C110.516 29.7048 110.243 29.9082 109.969 30.0439C109.695 30.1795 109.352 30.3152 109.01 30.4508C108.805 30.5186 108.599 30.5864 108.394 30.5186C108.188 30.5186 107.983 30.4508 107.777 30.4508C107.504 30.4508 107.161 30.3152 106.887 30.2473C106.613 30.1117 106.34 30.0439 106.066 29.9082C105.997 29.8404 105.929 29.8404 105.929 29.7726L105.792 29.7048C104.97 29.5013 104.354 28.891 104.08 28.0771L103.943 27.738C103.874 27.6702 103.874 27.5346 103.806 27.3989C103.532 26.992 103.395 26.5173 103.258 26.0426C103.19 25.5678 103.121 25.0253 103.19 24.4827V24.2793C103.395 23.3298 103.669 22.3803 103.874 21.4987C104.08 20.617 104.354 19.871 104.559 19.2606C104.765 18.6503 105.039 17.9043 105.381 17.0904V16.9548C105.449 16.887 105.518 16.8191 105.586 16.6835C105.86 16.0731 106.203 15.4628 106.545 14.8524C106.887 14.242 107.298 13.6995 107.709 13.2247C108.12 12.8178 108.462 12.4109 108.942 12.0718C109.352 11.7327 109.9 11.4614 110.448 11.3258C110.653 11.258 110.927 11.258 111.133 11.3936C111.338 11.5293 111.544 11.5971 111.749 11.6649C111.954 11.7327 112.16 11.8684 112.365 11.9362C112.639 12.0718 112.845 12.2074 112.981 12.4787C113.118 12.8178 113.324 13.0891 113.529 13.4282C113.735 13.6995 113.872 14.0386 114.077 14.3777C114.282 14.8524 114.419 15.3271 114.488 15.8697V17.633C114.83 17.4295 115.104 17.2261 115.378 17.0226C115.652 16.8191 115.926 16.6157 116.268 16.4122L116.953 16.0053L117.638 15.5984C118.391 15.0559 119.213 14.6489 120.103 14.1742C120.924 13.7673 121.746 13.3604 122.568 12.8856L123.184 12.6144C123.389 12.5465 123.595 12.4109 123.732 12.2074C123.8 12.1396 123.869 12.0718 123.937 12.0718C124.006 12.004 124.143 12.004 124.211 11.9362ZM110.79 16.6835C110.79 16.4801 110.79 16.3444 110.859 16.141C110.859 15.9375 110.859 15.8019 110.79 15.5984C110.722 15.5984 110.653 15.5984 110.585 15.6662C110.311 15.8697 110.037 16.0731 109.9 16.3444C109.695 16.6157 109.558 16.9548 109.421 17.2261L108.873 18.379C108.668 18.7859 108.531 19.1928 108.325 19.5997C108.257 19.871 108.188 20.1423 108.051 20.3457C107.914 20.617 107.846 20.8205 107.777 21.0918C107.709 21.2952 107.641 21.5665 107.572 21.7699C107.504 21.9734 107.435 22.2447 107.367 22.4481C107.298 22.7194 107.23 22.9229 107.161 23.1941C107.093 23.4654 107.024 23.6689 106.956 23.8723C106.887 24.008 106.887 24.2114 106.887 24.3471C106.887 24.8896 107.024 25.4322 107.161 25.9069C107.298 26.3138 107.504 26.3816 107.777 26.0426C107.983 25.8391 108.188 25.6356 108.325 25.4322C108.462 25.2287 108.668 24.9574 108.805 24.754C108.942 24.5505 109.01 24.4149 109.078 24.2793C109.147 24.1436 109.215 23.9402 109.284 23.7367C109.284 23.4654 109.352 23.262 109.489 22.9907C109.558 22.8551 109.558 22.7872 109.558 22.6516C109.489 22.3803 109.489 22.109 109.626 21.8378C109.695 21.5665 109.832 21.2952 109.9 20.9561C109.969 20.617 110.174 20.2101 110.243 19.8032C110.379 19.3963 110.448 19.0572 110.516 18.6503C110.585 18.3112 110.653 17.9043 110.653 17.5652C110.79 17.4295 110.79 17.0904 110.79 16.6835Z" fill="#D6006C"/>
    <path d="M143.11 9.63031C143.315 9.63031 143.384 9.76595 143.315 10.0372C143.247 10.3085 143.178 10.512 143.11 10.7154C143.041 10.9189 142.904 11.1223 142.768 11.3936C142.494 11.8683 142.22 12.3431 141.946 12.8178C141.672 13.2925 141.398 13.7673 141.193 14.3098C141.124 14.4455 141.056 14.5811 140.987 14.7167C140.919 14.8524 140.85 14.988 140.919 15.1237C140.987 15.1915 140.919 15.2593 140.782 15.3949C140.166 16.3444 139.618 17.2261 139.001 18.0399C138.591 18.6503 138.18 19.2606 137.7 19.871C137.632 20.0066 137.495 20.2101 137.358 20.3457C137.221 20.4814 137.153 20.617 137.016 20.8205C136.947 20.8883 136.879 20.9561 136.879 21.0917C136.81 21.1596 136.81 21.2952 136.742 21.363C136.536 21.8378 136.331 22.2447 136.057 22.6516C135.783 23.0585 135.509 23.3976 135.235 23.8045C135.167 23.8723 135.167 23.8723 135.098 23.9402C135.03 24.008 134.962 24.008 134.962 24.0758L134.071 24.754C133.729 24.9574 133.318 25.0253 132.976 25.0253H132.907C132.77 25.0253 132.633 25.0253 132.496 25.0253C132.428 25.0253 132.36 25.0253 132.291 25.0253H132.086C132.017 25.0253 131.949 25.0931 131.949 25.0253C131.88 25.0253 131.88 25.0253 131.812 25.0253H131.743C131.401 25.0253 131.127 24.9574 130.853 24.8218C130.579 24.6862 130.374 24.4827 130.168 24.2792L129.141 23.0585C129.004 22.855 128.799 22.9229 128.593 23.1263C128.457 23.262 128.32 23.3976 128.183 23.5332C128.046 23.8045 127.84 24.008 127.635 24.2114L126.95 24.8218C126.882 24.9574 126.813 25.0253 126.745 25.0931C126.676 25.1609 126.539 25.2965 126.471 25.3644C126.334 25.5678 126.128 25.7713 125.923 25.9747L125.444 26.246C125.307 26.3816 125.17 26.5173 125.033 26.6529C124.964 26.7886 124.827 26.8564 124.69 26.9242C124.554 26.9242 124.417 26.992 124.28 26.992C123.732 27.1955 123.116 27.1955 122.568 26.992C122.431 26.9242 122.294 26.8564 122.225 26.7207C122.157 26.5851 121.952 26.5173 121.815 26.5173C121.541 26.5173 121.267 26.5173 120.993 26.3816C120.787 26.3138 120.582 26.246 120.377 26.1782C120.171 26.1104 119.966 26.0425 119.76 25.9069C119.213 25.5678 118.802 25.0253 118.665 24.4149C118.665 24.2792 118.665 24.1436 118.665 23.9402V23.4654C118.665 23.0585 118.665 22.5838 118.802 22.1769C118.939 21.7699 119.076 21.363 119.213 20.9561C119.35 20.2779 119.555 19.6675 119.829 19.0572C120.103 18.4468 120.377 17.7686 120.582 17.1582C120.787 16.5479 121.13 15.734 121.472 15.0558C121.815 14.3777 122.02 13.6316 122.294 12.9534C122.362 12.75 122.499 12.5465 122.636 12.2753C122.773 12.0718 122.842 11.8683 122.979 11.5971C123.047 11.4614 123.116 11.3258 123.321 11.258C123.458 11.1902 123.595 11.1902 123.8 11.1902C124.006 11.1902 124.28 11.1902 124.485 11.258C124.759 11.3258 124.964 11.3936 125.17 11.5292C125.307 11.5971 125.375 11.7327 125.512 11.8005C125.649 11.9362 125.786 12.004 125.923 12.0718V12.1396C126.128 12.5465 126.334 12.9534 126.402 13.4282C126.539 13.9029 126.471 14.3777 126.265 14.8524C126.128 15.1237 126.06 15.4628 125.923 15.734C125.855 16.0053 125.786 16.3444 125.649 16.6157C125.444 17.2261 125.238 17.8364 125.033 18.4468C124.827 19.0572 124.622 19.6675 124.417 20.2779C124.28 20.617 124.143 21.0239 124.143 21.4308C124.143 21.8378 124.074 22.1769 124.074 22.5838V22.7872C124.074 22.855 124.143 22.9229 124.211 22.9229C124.348 22.9229 124.485 22.855 124.622 22.7194C124.896 22.3125 125.101 21.9734 125.307 21.6343C125.512 21.2952 125.718 20.9561 125.991 20.5492C126.539 19.7354 127.019 18.9894 127.429 18.1755C127.84 17.3617 128.32 16.6157 128.799 15.8019C129.278 14.988 129.552 14.5133 129.963 13.8351C130.374 13.2247 130.853 12.6144 131.332 12.0718C131.606 11.7327 131.88 11.3258 132.154 10.9189C132.36 10.6476 132.565 10.4441 132.839 10.3085C133.113 10.1729 133.387 9.96941 133.661 9.83377C133.797 9.76595 134.003 9.76595 134.14 9.90159C134.277 9.96941 134.414 10.0372 134.551 10.105C134.688 10.1729 134.893 10.1729 135.03 10.1729C135.235 10.1729 135.372 10.2407 135.441 10.4441C135.578 10.6476 135.783 10.8511 135.92 11.0545C136.057 11.258 136.194 11.4614 136.399 11.6649C136.536 11.9362 136.605 12.2074 136.468 12.5465C136.399 12.8856 136.263 13.2925 136.057 13.5638C135.852 13.8351 135.715 14.1064 135.578 14.4455C135.509 14.7167 135.372 15.0558 135.167 15.2593C134.893 15.8019 134.688 16.3444 134.482 16.887C134.277 17.4295 134.071 17.9721 133.866 18.5146C133.729 18.9215 133.524 19.3284 133.387 19.6675C133.181 20.0745 132.976 20.4136 132.77 20.8205C132.633 21.0239 132.565 21.2274 132.565 21.4308C132.565 21.6343 132.565 21.8378 132.633 22.0412C132.633 22.109 132.702 22.1769 132.702 22.1769C132.839 21.9734 133.044 21.7699 133.181 21.5665C133.387 21.363 133.524 21.1596 133.661 20.9561C133.934 20.5492 134.277 20.2101 134.551 19.871C134.825 19.5319 135.235 19.1928 135.578 18.8537C135.92 18.5146 136.194 18.1755 136.536 17.8364C136.879 17.4973 137.153 17.1582 137.427 16.7513C137.906 16.1409 138.454 15.5306 139.001 14.9202C139.549 14.3098 140.029 13.6995 140.576 13.0891C140.919 12.6822 141.261 12.3431 141.535 12.004C141.877 11.5971 142.151 11.1902 142.425 10.7832C142.494 10.6476 142.562 10.5798 142.631 10.4441C142.699 10.3085 142.836 10.2407 142.904 10.1729C142.836 9.76595 142.973 9.63031 143.11 9.63031Z" fill="#D6006C"/>
    <path d="M14.7217 46.4561C15.2695 46.4561 15.8858 46.6596 16.2966 47.0665C16.3651 47.1343 16.3651 47.2021 16.2966 47.2021L15.9542 47.4734C15.8858 47.5412 15.8173 47.5412 15.8173 47.4734C15.5434 47.2021 15.1326 47.0665 14.7217 47.0665C13.8316 47.1343 13.0784 47.9481 13.1468 48.8298C13.2153 49.6436 13.9 50.3218 14.7217 50.3896C15.1326 50.3896 15.5434 50.254 15.8173 49.9827C15.8858 49.9149 15.9542 49.9149 15.9542 49.9827L16.2281 50.254C16.2966 50.3218 16.2966 50.3896 16.2281 50.4574C15.8173 50.8644 15.2695 51.0678 14.6532 51.0678C13.3522 51.0678 12.3251 49.9827 12.3936 48.762C12.4621 47.4734 13.4207 46.4561 14.7217 46.4561Z" fill="#171816"/>
    <path d="M18.1455 50.7965L20.1312 46.5239C20.1312 46.4561 20.1997 46.4561 20.2682 46.4561H20.3367C20.4051 46.4561 20.4051 46.4561 20.4736 46.5239L22.4593 50.7965C22.4593 50.8644 22.4593 50.9322 22.3909 50.9322H22.3224H21.9116C21.8431 50.9322 21.7746 50.8644 21.7746 50.8644L21.3638 49.9827H19.2411C19.1041 50.254 18.9672 50.5931 18.8302 50.8644C18.8302 50.9322 18.7618 50.9322 18.6933 50.9322H18.2825C18.214 50.9322 18.1455 50.8644 18.1455 50.7965ZM21.0899 49.4402L20.2682 47.6769L19.515 49.4402H21.0899Z" fill="#171816"/>
    <path d="M24.6504 46.5918C24.6504 46.524 24.7189 46.4561 24.7873 46.4561H26.2253C26.8415 46.3883 27.4578 46.7952 27.5263 47.4734C27.5948 47.9482 27.3209 48.4229 26.91 48.6942C27.3893 48.8298 27.6632 49.2367 27.7317 49.7115C27.7317 50.3896 27.1154 50.9322 26.4307 50.9322H26.3622H24.9243C24.8558 50.9322 24.7873 50.8644 24.7873 50.7966L24.6504 46.5918ZM26.2938 50.3896C26.7046 50.3896 26.9785 50.0506 26.9785 49.7115C26.9785 49.3045 26.6361 49.0333 26.2938 49.0333H26.2253H25.3351V50.4575H26.2938V50.3896ZM26.1568 48.4229C26.4992 48.4229 26.8415 48.1516 26.8415 47.8125V47.7447C26.8415 47.4056 26.6361 47.1343 26.2938 47.0665H26.2253H25.3351V48.4229H26.1568Z" fill="#171816"/>
    <path d="M30.2654 46.5918C30.2654 46.5239 30.3339 46.4561 30.4023 46.4561H30.8132C30.8816 46.4561 30.9501 46.5239 30.9501 46.5918V50.7965C30.9501 50.8644 30.8816 50.9322 30.8132 50.9322H30.4023C30.3339 50.9322 30.2654 50.8644 30.2654 50.7965V46.5918Z" fill="#171816"/>
    <path d="M34.3737 46.5239C34.3737 46.4561 34.4421 46.3883 34.5106 46.3883H34.6475L37.455 49.5758V46.5918C37.455 46.5239 37.5234 46.4561 37.5919 46.4561H38.0028C38.0712 46.4561 38.1397 46.5239 38.1397 46.5918V50.8644C38.1397 50.9322 38.0712 51 38.0028 51H37.7973L34.9899 47.7447V50.8644C34.9899 50.9322 34.9214 51 34.853 51H34.4421C34.3736 51 34.3052 50.9322 34.3052 50.8644L34.3737 46.5239Z" fill="#171816"/>
    <path d="M41.0157 46.5918C41.0157 46.5239 41.0842 46.4561 41.1527 46.4561H43.7547C43.8232 46.4561 43.8916 46.5239 43.8916 46.5918V46.9308C43.8916 46.9987 43.8232 47.0665 43.7547 47.0665H41.7005V48.3551H43.4123C43.4808 48.3551 43.5493 48.4229 43.5493 48.4907V48.8298C43.5493 48.8976 43.4808 48.9654 43.4123 48.9654H41.7005V50.3896H43.7547C43.8232 50.3896 43.8916 50.4574 43.8916 50.5253V50.8644C43.8916 50.9322 43.8232 51 43.7547 51H41.0842C41.0157 51 40.9473 50.9322 40.9473 50.8644L41.0157 46.5918Z" fill="#171816"/>
    <path d="M46.9729 47.0665H45.9458C45.8773 47.0665 45.8088 46.9987 45.8088 46.9308V46.5918C45.8088 46.5239 45.8773 46.4561 45.9458 46.4561H48.6847C48.7532 46.4561 48.8217 46.5239 48.8217 46.5918V46.9308C48.8217 46.9987 48.7532 47.0665 48.6847 47.0665H47.6576V50.7965C47.6576 50.8644 47.5892 50.9322 47.5207 50.9322H47.1098C47.0414 50.9322 46.9729 50.8644 46.9729 50.7965V47.0665Z" fill="#171816"/>
    <path d="M54.1626 46.5918C54.1626 46.5239 54.2311 46.4561 54.2995 46.4561H55.806C57.0385 46.4561 58.0656 47.4734 58.0656 48.6941C58.0656 49.9149 57.0385 50.9322 55.806 50.9322H54.2995C54.2311 50.9322 54.1626 50.8644 54.1626 50.7965V46.5918ZM55.669 50.3218C56.5592 50.3218 57.3124 49.5758 57.3124 48.6941C57.3124 47.8125 56.5592 47.0665 55.669 47.0665H54.7789V50.3218H55.669Z" fill="#171816"/>
    <path d="M60.5306 46.5918C60.5306 46.5239 60.5991 46.4561 60.6676 46.4561H63.2011C63.2696 46.4561 63.338 46.5239 63.338 46.5918V46.9308C63.338 46.9987 63.2696 47.0665 63.2011 47.0665H61.1469V48.3551H62.8587C62.9272 48.3551 62.9957 48.4229 62.9957 48.4907V48.8298C62.9957 48.8976 62.9272 48.9654 62.8587 48.9654H61.1469V50.3896H63.2011C63.2696 50.3896 63.338 50.4574 63.338 50.5253V50.8644C63.338 50.9322 63.2696 51 63.2011 51H60.5991C60.5306 51 60.4622 50.9322 60.4622 50.8644L60.5306 46.5918Z" fill="#171816"/>
    <path d="M68.8845 46.5918C68.8845 46.5239 68.953 46.4561 69.0215 46.4561H70.8018C71.555 46.4561 72.1713 47.0665 72.2397 47.8125C72.2397 48.4229 71.8289 48.9654 71.2811 49.1689L72.1713 50.7965C72.2397 50.8644 72.1713 50.9322 72.1713 50.9322H72.1028H71.6235C71.555 50.9322 71.555 50.9322 71.4865 50.8644L70.6648 49.1689H69.7062V50.8644C69.7062 50.9322 69.6377 51 69.5693 51H69.1584C69.0899 51 69.0215 50.9322 69.0215 50.8644L68.8845 46.5918ZM70.7333 48.6263C71.1442 48.6263 71.4865 48.2872 71.4865 47.8125C71.4865 47.4056 71.1442 47.0665 70.7333 47.0665H69.5693V48.6263H70.7333Z" fill="#171816"/>
    <path d="M74.7732 46.5918C74.7732 46.5239 74.8417 46.4561 74.9101 46.4561H77.5121C77.5806 46.4561 77.6491 46.5239 77.6491 46.5918V46.9308C77.6491 46.9987 77.5806 47.0665 77.5121 47.0665H75.4579V48.3551H77.1698C77.2382 48.3551 77.3067 48.4229 77.3067 48.4907V48.8298C77.3067 48.8976 77.2382 48.9654 77.1698 48.9654H75.4579V50.3896H77.5121C77.5806 50.3896 77.6491 50.4574 77.6491 50.5253V50.8644C77.6491 50.9322 77.5806 51 77.5121 51H74.9786C74.9101 51 74.8417 50.9322 74.8417 50.8644L74.7732 46.5918Z" fill="#171816"/>
    <path d="M82.1684 46.4561C82.7162 46.4561 83.3325 46.6596 83.7433 47.0665C83.8118 47.1343 83.8118 47.2021 83.7433 47.2021L83.4694 47.4734C83.401 47.5412 83.3325 47.5412 83.3325 47.4734C83.0586 47.2021 82.6477 47.0665 82.2369 47.0665C81.3468 47.1343 80.5935 47.9481 80.662 48.8298C80.7305 49.6436 81.4152 50.3218 82.2369 50.3896C82.6477 50.3896 83.0586 50.254 83.3325 49.9827C83.401 49.9149 83.4694 49.9149 83.4694 49.9827L83.7433 50.254C83.8118 50.3218 83.8118 50.3896 83.7433 50.4574C83.3325 50.8644 82.7847 51.0678 82.1684 51.0678C80.8674 51.0678 79.8403 50.0505 79.8403 48.8298C79.8403 47.5412 80.8674 46.5239 82.1 46.5239C82.1 46.4561 82.1 46.4561 82.1684 46.4561Z" fill="#171816"/>
    <path d="M86.2769 46.5918C86.2769 46.5239 86.3453 46.4561 86.4138 46.4561H88.1256C88.8789 46.4561 89.4951 47.0665 89.5636 47.8125C89.5636 48.4229 89.1527 48.9654 88.605 49.1689L89.4951 50.7965C89.5636 50.8644 89.4951 50.9322 89.4266 51H89.3582H88.8789C88.8104 51 88.8104 51 88.8104 50.9322L87.9887 49.2367H87.0301V50.8644C87.0301 50.9322 86.9616 51 86.8931 51H86.4823C86.4138 51 86.3453 50.9322 86.3453 50.8644L86.2769 46.5918ZM88.0572 48.6263C88.468 48.6263 88.8104 48.2872 88.8104 47.8125C88.8104 47.4056 88.468 47.0665 88.0572 47.0665H86.8931V48.6263H88.0572Z" fill="#171816"/>
    <path d="M92.0286 46.5918C92.0286 46.5239 92.097 46.4561 92.1655 46.4561H92.5764C92.6448 46.4561 92.7133 46.5239 92.7133 46.5918V49.2367C92.6448 49.8471 93.0557 50.3218 93.6035 50.4574C94.1512 50.5253 94.699 50.1862 94.836 49.5758C94.836 49.4402 94.836 49.3723 94.836 49.2367V46.5918C94.836 46.5239 94.9045 46.4561 94.9729 46.4561H95.4522C95.5207 46.4561 95.5892 46.5239 95.5892 46.5918V49.2367C95.5892 50.1862 94.7675 51 93.8089 51C92.8503 51 92.0286 50.254 92.0286 49.2367V46.5918Z" fill="#171816"/>
    <path d="M98.9443 47.0665H97.9172C97.8487 47.0665 97.7803 46.9987 97.7803 46.9308V46.5918C97.7803 46.5239 97.8487 46.4561 97.9172 46.4561H100.656C100.725 46.4561 100.793 46.5239 100.793 46.5918V46.9308C100.793 46.9987 100.725 47.0665 100.656 47.0665H99.6291V50.7965C99.6291 50.8644 99.5606 50.9322 99.4921 50.9322H99.0813C99.0128 50.9322 98.9443 50.8644 98.9443 50.7965V47.0665Z" fill="#171816"/>
    <path d="M103.053 46.5918C103.053 46.5239 103.121 46.4561 103.19 46.4561H105.792C105.86 46.4561 105.929 46.5239 105.929 46.5918V46.9308C105.929 46.9987 105.86 47.0665 105.792 47.0665H103.737V48.3551H105.449C105.518 48.3551 105.586 48.4229 105.586 48.4907V48.8298C105.586 48.8976 105.518 48.9654 105.449 48.9654H103.737V50.3896H105.792C105.86 50.3896 105.929 50.4574 105.929 50.5253V50.8644C105.929 50.9322 105.86 51 105.792 51H103.258C103.19 51 103.121 50.9322 103.121 50.8644L103.053 46.5918Z" fill="#171816"/>
    <path d="M108.941 46.5239C108.941 46.4561 109.01 46.4561 109.078 46.4561H109.147C109.215 46.4561 109.215 46.4561 109.284 46.5239L110.653 49.7793L111.954 46.5239C111.954 46.4561 112.023 46.4561 112.091 46.4561H112.16C112.228 46.4561 112.297 46.5239 112.297 46.5239L113.118 50.7965C113.118 50.8644 113.118 50.9322 112.981 50.9322H112.571C112.502 50.9322 112.502 50.8644 112.434 50.8644L111.954 48.016L110.79 50.9322C110.79 51 110.722 51 110.653 51H110.516C110.448 51 110.448 51 110.379 50.9322L109.215 48.016L108.736 50.8644C108.736 50.9322 108.668 50.9322 108.599 50.9322H108.188C108.12 50.9322 108.051 50.8644 108.051 50.7965L108.941 46.5239Z" fill="#171816"/>
    <path d="M115.652 46.5918C115.652 46.5239 115.72 46.4561 115.789 46.4561H118.391C118.459 46.4561 118.528 46.5239 118.528 46.5918V46.9308C118.528 46.9987 118.459 47.0665 118.391 47.0665H116.337V48.3551H118.048C118.117 48.3551 118.185 48.4229 118.185 48.4907V48.8298C118.185 48.8976 118.117 48.9654 118.048 48.9654H116.337V50.3896H118.391C118.459 50.3896 118.528 50.4574 118.528 50.5253V50.8644C118.528 50.9322 118.459 51 118.391 51H115.857C115.789 51 115.72 50.9322 115.72 50.8644L115.652 46.5918Z" fill="#171816"/>
    <path d="M120.993 46.5239C120.993 46.4561 121.061 46.3883 121.13 46.3883H121.267L124.074 49.5758V46.5918C124.074 46.5239 124.143 46.4561 124.211 46.4561H124.622C124.69 46.4561 124.759 46.5239 124.759 46.5918V50.8644C124.759 50.9322 124.69 51 124.622 51H124.485L121.678 47.7447V50.8644C121.678 50.9322 121.609 51 121.541 51H121.198C121.13 51 121.061 50.9322 121.061 50.8644L120.993 46.5239Z" fill="#171816"/>
    <path d="M128.251 47.0665H127.224C127.155 47.0665 127.087 46.9987 127.087 46.9308V46.5918C127.087 46.5239 127.155 46.4561 127.224 46.4561H129.963C130.031 46.4561 130.1 46.5239 130.1 46.5918V46.9308C130.1 46.9987 130.031 47.0665 129.963 47.0665H128.936V50.7965C128.936 50.8644 128.867 50.9322 128.799 50.9322H128.388C128.319 50.9322 128.251 50.8644 128.251 50.7965V47.0665Z" fill="#171816"/>
  </g>
  <defs>
    <clipPath id="clip0_249_80">
      <rect width="144" height="51" fill="white"/>
    </clipPath>
  </defs>
</svg>